<svg xmlns="http://www.w3.org/2000/svg" xmlns:xlink="http://www.w3.org/1999/xlink" contentStyleType="text/css" data-diagram-type="SEQUENCE" height="1763.25px" preserveAspectRatio="none" style="width:1169px;height:1763px;background:#FFFFFF;" version="1.1" viewBox="0 0 1169 1763" width="1169.25px" zoomAndPan="magnify"><defs/><g><g><title>Customer</title><rect fill="#000000" fill-opacity="0.00000" height="1640.9121" width="6" x="32.2515" y="61.7227"/><line style="stroke:#000000;stroke-width:0.75;stroke-dasharray:3.75,3.75;" x1="35.25" x2="35.25" y1="61.7227" y2="1702.6348"/></g><g><title>Browser</title><rect fill="#000000" fill-opacity="0.00000" height="1640.9121" width="6" x="112.0554" y="61.7227"/><line style="stroke:#000000;stroke-width:0.75;stroke-dasharray:3.75,3.75;" x1="114.8328" x2="114.8328" y1="61.7227" y2="1702.6348"/></g><g><title>Flask App</title><rect fill="#000000" fill-opacity="0.00000" height="1640.9121" width="6" x="217.1437" y="61.7227"/><line style="stroke:#000000;stroke-width:0.75;stroke-dasharray:3.75,3.75;" x1="219.8815" x2="219.8815" y1="61.7227" y2="1702.6348"/></g><g><title>Quality Manager</title><rect fill="#000000" fill-opacity="0.00000" height="1640.9121" width="6" x="454.6234" y="61.7227"/><line style="stroke:#000000;stroke-width:0.75;stroke-dasharray:3.75,3.75;" x1="457.5502" x2="457.5502" y1="61.7227" y2="1702.6348"/></g><g><title>Circuit Breaker</title><rect fill="#000000" fill-opacity="0.00000" height="1640.9121" width="6" x="591.2754" y="61.7227"/><line style="stroke:#000000;stroke-width:0.75;stroke-dasharray:3.75,3.75;" x1="593.5576" x2="593.5576" y1="61.7227" y2="1702.6348"/></g><g><title>Order Queue Manager</title><rect fill="#000000" fill-opacity="0.00000" height="1640.9121" width="6" x="695.3716" y="61.7227"/><line style="stroke:#000000;stroke-width:0.75;stroke-dasharray:3.75,3.75;" x1="697.8809" x2="697.8809" y1="61.7227" y2="1702.6348"/></g><g><title>Metrics Engine</title><rect fill="#000000" fill-opacity="0.00000" height="1640.9121" width="6" x="845.7938" y="61.7227"/><line style="stroke:#000000;stroke-width:0.75;stroke-dasharray:3.75,3.75;" x1="848.4188" x2="848.4188" y1="61.7227" y2="1702.6348"/></g><g><title>Database</title><rect fill="#000000" fill-opacity="0.00000" height="1640.9121" width="6" x="915.2333" y="61.7227"/><line style="stroke:#000000;stroke-width:0.75;stroke-dasharray:3.75,3.75;" x1="918.1688" x2="918.1688" y1="61.7227" y2="1702.6348"/></g><g><title>Async Worker</title><rect fill="#000000" fill-opacity="0.00000" height="1640.9121" width="6" x="1099.5784" y="61.7227"/><line style="stroke:#000000;stroke-width:0.75;stroke-dasharray:3.75,3.75;" x1="1102.0818" x2="1102.0818" y1="61.7227" y2="1702.6348"/></g><g class="participant participant-head" data-participant="Customer"><text fill="#000000" font-family="Verdana" font-size="10.5" lengthAdjust="spacing" textLength="51.0029" x="7.5" y="59.2463">Customer</text><ellipse cx="35.2515" cy="10.5" fill="#FFEBEE" rx="6" ry="6" style="stroke:#D32F2F;stroke-width:0.75;"/><path d="M35.2515,16.5 L35.2515,36.75 M25.5015,22.5 L45.0015,22.5 M35.2515,36.75 L25.5015,48 M35.2515,36.75 L45.0015,48" fill="none" style="stroke:#D32F2F;stroke-width:0.75;"/></g><g class="participant participant-tail" data-participant="Customer"><text fill="#000000" font-family="Verdana" font-size="10.5" lengthAdjust="spacing" textLength="51.0029" x="7.5" y="1711.6311">Customer</text><ellipse cx="35.2515" cy="1720.8574" fill="#FFEBEE" rx="6" ry="6" style="stroke:#D32F2F;stroke-width:0.75;"/><path d="M35.2515,1726.8574 L35.2515,1747.1074 M25.5015,1732.8574 L45.0015,1732.8574 M35.2515,1747.1074 L25.5015,1758.3574 M35.2515,1747.1074 L45.0015,1758.3574" fill="none" style="stroke:#D32F2F;stroke-width:0.75;"/></g><g class="participant participant-head" data-participant="Browser"><rect fill="#E3F2FD" height="18" rx="3.75" ry="3.75" style="stroke:#1976D2;stroke-width:0.75;" width="34.9453" x="97.5828" y="42.9727"/><text fill="#000000" font-family="Verdana" font-size="6" lengthAdjust="spacing" textLength="24.4453" x="102.8328" y="53.792">Browser</text></g><g class="participant participant-tail" data-participant="Browser"><rect fill="#E3F2FD" height="18" rx="3.75" ry="3.75" style="stroke:#1976D2;stroke-width:0.75;" width="34.9453" x="97.5828" y="1701.8848"/><text fill="#000000" font-family="Verdana" font-size="6" lengthAdjust="spacing" textLength="24.4453" x="102.8328" y="1712.7041">Browser</text></g><g class="participant participant-head" data-participant="Flask"><rect fill="#E3F2FD" height="18" rx="3.75" ry="3.75" style="stroke:#1976D2;stroke-width:0.75;" width="39.5244" x="200.3815" y="42.9727"/><text fill="#000000" font-family="Verdana" font-size="6" lengthAdjust="spacing" textLength="29.0244" x="205.6315" y="53.792">Flask App</text></g><g class="participant participant-tail" data-participant="Flask"><rect fill="#E3F2FD" height="18" rx="3.75" ry="3.75" style="stroke:#1976D2;stroke-width:0.75;" width="39.5244" x="200.3815" y="1701.8848"/><text fill="#000000" font-family="Verdana" font-size="6" lengthAdjust="spacing" textLength="29.0244" x="205.6315" y="1712.7041">Flask App</text></g><g class="participant participant-head" data-participant="QTM"><rect fill="#E3F2FD" height="18" rx="3.75" ry="3.75" style="stroke:#1976D2;stroke-width:0.75;" width="60.1465" x="427.5502" y="42.9727"/><text fill="#000000" font-family="Verdana" font-size="6" lengthAdjust="spacing" textLength="49.6465" x="432.8002" y="53.792">Quality Manager</text></g><g class="participant participant-tail" data-participant="QTM"><rect fill="#E3F2FD" height="18" rx="3.75" ry="3.75" style="stroke:#1976D2;stroke-width:0.75;" width="60.1465" x="427.5502" y="1701.8848"/><text fill="#000000" font-family="Verdana" font-size="6" lengthAdjust="spacing" textLength="49.6465" x="432.8002" y="1712.7041">Quality Manager</text></g><g class="participant participant-head" data-participant="CB"><rect fill="#E3F2FD" height="18" rx="3.75" ry="3.75" style="stroke:#1976D2;stroke-width:0.75;" width="55.4355" x="566.5576" y="42.9727"/><text fill="#000000" font-family="Verdana" font-size="6" lengthAdjust="spacing" textLength="44.9355" x="571.8076" y="53.792">Circuit Breaker</text></g><g class="participant participant-tail" data-participant="CB"><rect fill="#E3F2FD" height="18" rx="3.75" ry="3.75" style="stroke:#1976D2;stroke-width:0.75;" width="55.4355" x="566.5576" y="1701.8848"/><text fill="#000000" font-family="Verdana" font-size="6" lengthAdjust="spacing" textLength="44.9355" x="571.8076" y="1712.7041">Circuit Breaker</text></g><g class="participant participant-head" data-participant="Queue"><rect fill="#E3F2FD" height="18" rx="3.75" ry="3.75" style="stroke:#1976D2;stroke-width:0.75;" width="77.4814" x="659.6309" y="42.9727"/><text fill="#000000" font-family="Verdana" font-size="6" lengthAdjust="spacing" textLength="66.9814" x="664.8809" y="53.792">Order Queue Manager</text></g><g class="participant participant-tail" data-participant="Queue"><rect fill="#E3F2FD" height="18" rx="3.75" ry="3.75" style="stroke:#1976D2;stroke-width:0.75;" width="77.4814" x="659.6309" y="1701.8848"/><text fill="#000000" font-family="Verdana" font-size="6" lengthAdjust="spacing" textLength="66.9814" x="664.8809" y="1712.7041">Order Queue Manager</text></g><g class="participant participant-head" data-participant="Metrics"><rect fill="#E3F2FD" height="18" rx="3.75" ry="3.75" style="stroke:#1976D2;stroke-width:0.75;" width="54.75" x="821.4188" y="42.9727"/><text fill="#000000" font-family="Verdana" font-size="6" lengthAdjust="spacing" textLength="44.25" x="826.6688" y="53.792">Metrics Engine</text></g><g class="participant participant-tail" data-participant="Metrics"><rect fill="#E3F2FD" height="18" rx="3.75" ry="3.75" style="stroke:#1976D2;stroke-width:0.75;" width="54.75" x="821.4188" y="1701.8848"/><text fill="#000000" font-family="Verdana" font-size="6" lengthAdjust="spacing" textLength="44.25" x="826.6688" y="1712.7041">Metrics Engine</text></g><g class="participant participant-head" data-participant="DB"><rect fill="#E3F2FD" height="18" rx="3.75" ry="3.75" style="stroke:#1976D2;stroke-width:0.75;" width="39.1289" x="898.6688" y="42.9727"/><text fill="#000000" font-family="Verdana" font-size="6" lengthAdjust="spacing" textLength="28.6289" x="903.9188" y="53.792">Database</text></g><g class="participant participant-tail" data-participant="DB"><rect fill="#E3F2FD" height="18" rx="3.75" ry="3.75" style="stroke:#1976D2;stroke-width:0.75;" width="39.1289" x="898.6688" y="1701.8848"/><text fill="#000000" font-family="Verdana" font-size="6" lengthAdjust="spacing" textLength="28.6289" x="903.9188" y="1712.7041">Database</text></g><g class="participant participant-head" data-participant="Worker"><rect fill="#E3F2FD" height="18" rx="3.75" ry="3.75" style="stroke:#1976D2;stroke-width:0.75;" width="51.9932" x="1076.5818" y="42.9727"/><text fill="#000000" font-family="Verdana" font-size="6" lengthAdjust="spacing" textLength="41.4932" x="1081.8318" y="53.792">Async Worker</text></g><g class="participant participant-tail" data-participant="Worker"><rect fill="#E3F2FD" height="18" rx="3.75" ry="3.75" style="stroke:#1976D2;stroke-width:0.75;" width="51.9932" x="1076.5818" y="1701.8848"/><text fill="#000000" font-family="Verdana" font-size="6" lengthAdjust="spacing" textLength="41.4932" x="1081.8318" y="1712.7041">Async Worker</text></g><g class="message" data-participant-1="Customer" data-participant-2="Browser"><polygon fill="#000000" points="106.0554,127.4707,113.5554,130.4707,106.0554,133.4707,109.0554,130.4707" style="stroke:#000000;stroke-width:0.75;"/><line style="stroke:#000000;stroke-width:0.75;" x1="35.2515" x2="110.5554" y1="130.4707" y2="130.4707"/><text fill="#000000" font-family="Verdana" font-size="9.75" lengthAdjust="spacing" textLength="34.5868" x="57.86" y="81.2728">Submit</text><text fill="#000000" font-family="Verdana" font-size="9.75" lengthAdjust="spacing" textLength="44.5129" x="52.897" y="92.6224">checkout</text><text fill="#000000" font-family="Verdana" font-size="9.75" lengthAdjust="spacing" textLength="31.4542" x="59.4263" y="103.972">during</text><text fill="#000000" font-family="Verdana" font-size="9.75" lengthAdjust="spacing" textLength="23.3752" x="63.4658" y="115.3217">flash</text><text fill="#000000" font-family="Verdana" font-size="9.75" lengthAdjust="spacing" textLength="19.7618" x="65.2725" y="126.6713">sale</text></g><g class="message" data-participant-1="Browser" data-participant-2="Flask"><polygon fill="#000000" points="211.1437,160.6699,218.6437,163.6699,211.1437,166.6699,214.1437,163.6699" style="stroke:#000000;stroke-width:0.75;"/><line style="stroke:#000000;stroke-width:0.75;" x1="115.0554" x2="215.6437" y1="163.6699" y2="163.6699"/><text fill="#000000" font-family="Verdana" font-size="9.75" lengthAdjust="spacing" textLength="25.6985" x="154.7503" y="148.5209">POST</text><text fill="#000000" font-family="Verdana" font-size="9.75" lengthAdjust="spacing" textLength="47.7979" x="143.7006" y="159.8705">/checkout</text></g><path d="M145.5,177.1699 L145.5,188.4199 A3.75,3.75 0 0 0 149.25,192.1699 L289.5,192.1699 A3.75,3.75 0 0 0 293.25,188.4199 L293.25,180.9199 L285.75,173.4199 L149.25,173.4199 A3.75,3.75 0 0 0 145.5,177.1699" fill="#FFF3CD" style="stroke:#856404;stroke-width:0.75;"/><path d="M285.75,173.4199 L285.75,179.0449 A1.875,1.875 0 0 0 287.625,180.9199 L293.25,180.9199 L285.75,173.4199" fill="#FFF3CD" style="stroke:#856404;stroke-width:0.75;"/><text fill="#000000" font-family="Verdana" font-size="9.75" lengthAdjust="spacing" textLength="132.2201" x="150" y="186.2201">Throttling &amp; authentication</text><g class="message" data-participant-1="Flask" data-participant-2="QTM"><polygon fill="#000000" points="448.6234,208.8691,456.1234,211.8691,448.6234,214.8691,451.6234,211.8691" style="stroke:#000000;stroke-width:0.75;"/><line style="stroke:#000000;stroke-width:0.75;" x1="220.1437" x2="453.1234" y1="211.8691" y2="211.8691"/><text fill="#000000" font-family="Verdana" font-size="9.75" lengthAdjust="spacing" textLength="121.1276" x="278.3198" y="208.0697">throttle_request(user_id)</text></g><g class="message" data-participant-1="QTM" data-participant-2="Flask"><polygon fill="#000000" points="228.3937,230.7188,220.8937,233.7188,228.3937,236.7188,225.3937,233.7188" style="stroke:#000000;stroke-width:0.75;"/><line style="stroke:#000000;stroke-width:0.75;stroke-dasharray:1.5,1.5;" x1="223.8937" x2="456.8734" y1="233.7188" y2="233.7188"/><text fill="#000000" font-family="Verdana" font-size="9.75" lengthAdjust="spacing" textLength="37.5194" x="320.1238" y="229.9193">allowed</text></g><path d="M156,247.2188 L156,258.4688 A3.75,3.75 0 0 0 159.75,262.2188 L279.75,262.2188 A3.75,3.75 0 0 0 283.5,258.4688 L283.5,250.9688 L276,243.4688 L159.75,243.4688 A3.75,3.75 0 0 0 156,247.2188" fill="#FFF3CD" style="stroke:#856404;stroke-width:0.75;"/><path d="M276,243.4688 L276,249.0938 A1.875,1.875 0 0 0 277.875,250.9688 L283.5,250.9688 L276,243.4688" fill="#FFF3CD" style="stroke:#856404;stroke-width:0.75;"/><text fill="#000000" font-family="Verdana" font-size="9.75" lengthAdjust="spacing" textLength="111.806" x="160.5" y="256.2689">Circuit Breaker Pattern</text><g class="message" data-participant-1="Flask" data-participant-2="QTM"><polygon fill="#000000" points="448.6234,278.918,456.1234,281.918,448.6234,284.918,451.6234,281.918" style="stroke:#000000;stroke-width:0.75;"/><line style="stroke:#000000;stroke-width:0.75;" x1="220.1437" x2="453.1234" y1="281.918" y2="281.918"/><text fill="#000000" font-family="Verdana" font-size="9.75" lengthAdjust="spacing" textLength="219.4797" x="229.1437" y="278.1185">execute_with_circuit_breaker(payment_func)</text></g><g class="message" data-participant-1="QTM" data-participant-2="CB"><polygon fill="#000000" points="585.2754,300.7676,592.7754,303.7676,585.2754,306.7676,588.2754,303.7676" style="stroke:#000000;stroke-width:0.75;"/><line style="stroke:#000000;stroke-width:0.75;" x1="457.6234" x2="589.7754" y1="303.7676" y2="303.7676"/><text fill="#000000" font-family="Verdana" font-size="9.75" lengthAdjust="spacing" textLength="116.1954" x="467.8517" y="299.9681">execute(payment_func)</text></g><g class="message" data-participant-1="CB" data-participant-2="DB"><polygon fill="#000000" points="909.2333,333.9668,916.7333,336.9668,909.2333,339.9668,912.2333,336.9668" style="stroke:#000000;stroke-width:0.75;"/><line style="stroke:#000000;stroke-width:0.75;" x1="594.2754" x2="913.7333" y1="336.9668" y2="336.9668"/><text fill="#000000" font-family="Verdana" font-size="9.75" lengthAdjust="spacing" textLength="28.1455" x="742.1816" y="321.8177">query</text><text fill="#000000" font-family="Verdana" font-size="9.75" lengthAdjust="spacing" textLength="95.729" x="708.3898" y="333.1674">CircuitBreakerState</text></g><g class="message" data-participant-1="DB" data-participant-2="CB"><polygon fill="#000000" points="602.5254,378.5156,595.0254,381.5156,602.5254,384.5156,599.5254,381.5156" style="stroke:#000000;stroke-width:0.75;"/><line style="stroke:#000000;stroke-width:0.75;stroke-dasharray:1.5,1.5;" x1="598.0254" x2="917.4833" y1="381.5156" y2="381.5156"/><text fill="#000000" font-family="Verdana" font-size="9.75" lengthAdjust="spacing" textLength="24.6987" x="743.905" y="355.017">state</text><text fill="#000000" font-family="Verdana" font-size="9.75" lengthAdjust="spacing" textLength="8.1694" x="752.1696" y="366.3666">=</text><text fill="#000000" font-family="Verdana" font-size="9.75" lengthAdjust="spacing" textLength="48.7405" x="731.8841" y="377.7162">"CLOSED"</text></g><g class="message" data-participant-1="CB" data-participant-2="CB"><line style="stroke:#000000;stroke-width:0.75;" x1="594.2754" x2="625.7754" y1="403.3652" y2="403.3652"/><line style="stroke:#000000;stroke-width:0.75;" x1="625.7754" x2="625.7754" y1="403.3652" y2="413.1152"/><line style="stroke:#000000;stroke-width:0.75;" x1="595.0254" x2="625.7754" y1="413.1152" y2="413.1152"/><polygon fill="#000000" points="602.5254,410.1152,595.0254,413.1152,602.5254,416.1152,599.5254,413.1152" style="stroke:#000000;stroke-width:0.75;"/><text fill="#000000" font-family="Verdana" font-size="9.75" lengthAdjust="spacing" textLength="93.5962" x="599.5254" y="399.5658">process_payment()</text></g><g class="message" data-participant-1="CB" data-participant-2="QTM"><polygon fill="#000000" points="465.8734,454.6641,458.3734,457.6641,465.8734,460.6641,462.8734,457.6641" style="stroke:#000000;stroke-width:0.75;"/><line style="stroke:#000000;stroke-width:0.75;stroke-dasharray:1.5,1.5;" x1="461.3734" x2="593.5254" y1="457.6641" y2="457.6641"/><text fill="#000000" font-family="Verdana" font-size="9.75" lengthAdjust="spacing" textLength="43.1228" x="504.388" y="431.1654">Payment</text><text fill="#000000" font-family="Verdana" font-size="9.75" lengthAdjust="spacing" textLength="37.9955" x="506.9517" y="442.515">timeout</text><text fill="#000000" font-family="Verdana" font-size="9.75" lengthAdjust="spacing" textLength="23.9894" x="513.9547" y="453.8646">error</text></g><g class="message" data-participant-1="QTM" data-participant-2="Flask"><polygon fill="#000000" points="228.3937,487.8633,220.8937,490.8633,228.3937,493.8633,225.3937,490.8633" style="stroke:#000000;stroke-width:0.75;"/><line style="stroke:#000000;stroke-width:0.75;stroke-dasharray:1.5,1.5;" x1="223.8937" x2="456.8734" y1="490.8633" y2="490.8633"/><text fill="#000000" font-family="Verdana" font-size="9.75" lengthAdjust="spacing" textLength="43.4323" x="317.1674" y="475.7142">payment</text><text fill="#000000" font-family="Verdana" font-size="9.75" lengthAdjust="spacing" textLength="27.0125" x="325.3773" y="487.0638">failed</text></g><path d="M156.75,504.3633 L156.75,515.6133 A3.75,3.75 0 0 0 160.5,519.3633 L279,519.3633 A3.75,3.75 0 0 0 282.75,515.6133 L282.75,508.1133 L275.25,500.6133 L160.5,500.6133 A3.75,3.75 0 0 0 156.75,504.3633" fill="#FFF3CD" style="stroke:#856404;stroke-width:0.75;"/><path d="M275.25,500.6133 L275.25,506.2383 A1.875,1.875 0 0 0 277.125,508.1133 L282.75,508.1133 L275.25,500.6133" fill="#FFF3CD" style="stroke:#856404;stroke-width:0.75;"/><text fill="#000000" font-family="Verdana" font-size="9.75" lengthAdjust="spacing" textLength="110.8301" x="161.25" y="513.4135">Retry + MTTR tracking</text><g class="message" data-participant-1="Flask" data-participant-2="QTM"><polygon fill="#000000" points="448.6234,536.0625,456.1234,539.0625,448.6234,542.0625,451.6234,539.0625" style="stroke:#000000;stroke-width:0.75;"/><line style="stroke:#000000;stroke-width:0.75;" x1="220.1437" x2="453.1234" y1="539.0625" y2="539.0625"/><text fill="#000000" font-family="Verdana" font-size="9.75" lengthAdjust="spacing" textLength="168.9683" x="254.3994" y="535.2631">queue_order_for_retry(order_data)</text></g><g class="message" data-participant-1="QTM" data-participant-2="Queue"><polygon fill="#000000" points="689.3716,557.9121,696.8716,560.9121,689.3716,563.9121,692.3716,560.9121" style="stroke:#000000;stroke-width:0.75;"/><line style="stroke:#000000;stroke-width:0.75;" x1="457.6234" x2="693.8716" y1="560.9121" y2="560.9121"/><text fill="#000000" font-family="Verdana" font-size="9.75" lengthAdjust="spacing" textLength="103.3367" x="526.3292" y="557.1127">enqueue(order_data)</text></g><g class="message" data-participant-1="Queue" data-participant-2="DB"><polygon fill="#000000" points="909.2333,602.4609,916.7333,605.4609,909.2333,608.4609,912.2333,605.4609" style="stroke:#000000;stroke-width:0.75;"/><line style="stroke:#000000;stroke-width:0.75;" x1="698.3716" x2="913.7333" y1="605.4609" y2="605.4609"/><text fill="#000000" font-family="Verdana" font-size="9.75" lengthAdjust="spacing" textLength="35.2485" x="790.6782" y="578.9623">INSERT</text><text fill="#000000" font-family="Verdana" font-size="9.75" lengthAdjust="spacing" textLength="59.9092" x="778.3478" y="590.3119">OrderQueue</text><text fill="#000000" font-family="Verdana" font-size="9.75" lengthAdjust="spacing" textLength="85.3696" x="765.6176" y="601.6615">(status=pending)</text></g><g class="message" data-participant-1="DB" data-participant-2="Queue"><polygon fill="#000000" points="706.6216,624.3105,699.1216,627.3105,706.6216,630.3105,703.6216,627.3105" style="stroke:#000000;stroke-width:0.75;"/><line style="stroke:#000000;stroke-width:0.75;stroke-dasharray:1.5,1.5;" x1="702.1216" x2="917.4833" y1="627.3105" y2="627.3105"/><text fill="#000000" font-family="Verdana" font-size="9.75" lengthAdjust="spacing" textLength="36.7339" x="789.9355" y="623.5111">queued</text></g><g class="message" data-participant-1="Queue" data-participant-2="QTM"><polygon fill="#000000" points="465.8734,646.1602,458.3734,649.1602,465.8734,652.1602,462.8734,649.1602" style="stroke:#000000;stroke-width:0.75;"/><line style="stroke:#000000;stroke-width:0.75;stroke-dasharray:1.5,1.5;" x1="461.3734" x2="697.6216" y1="649.1602" y2="649.1602"/><text fill="#000000" font-family="Verdana" font-size="9.75" lengthAdjust="spacing" textLength="44.3177" x="555.8386" y="645.3607">queue_id</text></g><g class="message" data-participant-1="QTM" data-participant-2="Flask"><polygon fill="#000000" points="228.3937,713.4082,220.8937,716.4082,228.3937,719.4082,225.3937,716.4082" style="stroke:#000000;stroke-width:0.75;"/><line style="stroke:#000000;stroke-width:0.75;stroke-dasharray:1.5,1.5;" x1="223.8937" x2="456.8734" y1="716.4082" y2="716.4082"/><text fill="#000000" font-family="Verdana" font-size="9.75" lengthAdjust="spacing" textLength="26.1698" x="325.7986" y="667.2103">order</text><text fill="#000000" font-family="Verdana" font-size="9.75" lengthAdjust="spacing" textLength="44.8938" x="316.4366" y="678.5599">accepted</text><text fill="#000000" font-family="Verdana" font-size="9.75" lengthAdjust="spacing" textLength="13.4063" x="332.1804" y="689.9095">for</text><text fill="#000000" font-family="Verdana" font-size="9.75" lengthAdjust="spacing" textLength="28.3645" x="324.7013" y="701.2592">async</text><text fill="#000000" font-family="Verdana" font-size="9.75" lengthAdjust="spacing" textLength="52.7585" x="312.5043" y="712.6088">processing</text></g><g class="message" data-participant-1="QTM" data-participant-2="Metrics"><polygon fill="#000000" points="839.7938,769.3066,847.2938,772.3066,839.7938,775.3066,842.7938,772.3066" style="stroke:#000000;stroke-width:0.75;"/><line style="stroke:#000000;stroke-width:0.75;" x1="457.6234" x2="844.2938" y1="772.3066" y2="772.3066"/><text fill="#000000" font-family="Verdana" font-size="9.75" lengthAdjust="spacing" textLength="49.7545" x="628.3314" y="734.4584">increment</text><text fill="#000000" font-family="Verdana" font-size="9.75" lengthAdjust="spacing" textLength="112.782" x="596.8176" y="745.808">orders_submitted_total</text><text fill="#000000" font-family="Verdana" font-size="9.75" lengthAdjust="spacing" textLength="3.2849" x="651.5662" y="757.1576">/</text><text fill="#000000" font-family="Verdana" font-size="9.75" lengthAdjust="spacing" textLength="72.0634" x="617.1769" y="768.5072">accepted_total</text></g><path d="M511.5,785.8066 L511.5,819.5566 A3.75,3.75 0 0 0 515.25,823.3066 L672.75,823.3066 A3.75,3.75 0 0 0 676.5,819.5566 L676.5,789.5566 L669,782.0566 L515.25,782.0566 A3.75,3.75 0 0 0 511.5,785.8066" fill="#FFF3CD" style="stroke:#856404;stroke-width:0.75;"/><path d="M669,782.0566 L669,787.6816 A1.875,1.875 0 0 0 670.875,789.5566 L676.5,789.5566 L669,782.0566" fill="#FFF3CD" style="stroke:#856404;stroke-width:0.75;"/><text fill="#000000" font-family="Verdana" font-size="9.75" lengthAdjust="spacing" textLength="137.6378" x="516" y="794.8568">Failure count &gt;= threshold?</text><text fill="#000000" font-family="Verdana" font-size="9.75" lengthAdjust="spacing" textLength="97.5286" x="516" y="806.2064">- state flips to OPEN</text><text fill="#000000" font-family="Verdana" font-size="9.75" lengthAdjust="spacing" textLength="149.6635" x="516" y="817.556">- record outage_start for MTTR</text><g class="message" data-participant-1="CB" data-participant-2="DB"><polygon fill="#000000" points="909.2333,851.5547,916.7333,854.5547,909.2333,857.5547,912.2333,854.5547" style="stroke:#000000;stroke-width:0.75;"/><line style="stroke:#000000;stroke-width:0.75;" x1="594.2754" x2="913.7333" y1="854.5547" y2="854.5547"/><text fill="#000000" font-family="Verdana" font-size="9.75" lengthAdjust="spacing" textLength="39.3094" x="736.5996" y="839.4056">UPDATE</text><text fill="#000000" font-family="Verdana" font-size="9.75" lengthAdjust="spacing" textLength="172.1818" x="670.1635" y="850.7552">CircuitBreakerState(state="OPEN")</text></g><g class="message" data-participant-1="CB" data-participant-2="Metrics"><polygon fill="#000000" points="839.7938,873.4043,847.2938,876.4043,839.7938,879.4043,842.7938,876.4043" style="stroke:#000000;stroke-width:0.75;"/><line style="stroke:#000000;stroke-width:0.75;" x1="594.2754" x2="844.2938" y1="876.4043" y2="876.4043"/><text fill="#000000" font-family="Verdana" font-size="9.75" lengthAdjust="spacing" textLength="191.6342" x="625.7175" y="872.6049">record_event(payment_circuit_opened)</text></g><g class="message" data-participant-1="Flask" data-participant-2="Browser"><polygon fill="#000000" points="123.3054,963.3516,115.8054,966.3516,123.3054,969.3516,120.3054,966.3516" style="stroke:#000000;stroke-width:0.75;"/><line style="stroke:#000000;stroke-width:0.75;stroke-dasharray:1.5,1.5;" x1="118.8054" x2="219.3937" y1="966.3516" y2="966.3516"/><text fill="#000000" font-family="Verdana" font-size="9.75" lengthAdjust="spacing" textLength="24.0322" x="155.5834" y="894.4545">JSON</text><text fill="#000000" font-family="Verdana" font-size="9.75" lengthAdjust="spacing" textLength="46.222" x="144.4885" y="905.8041">{queued:</text><text fill="#000000" font-family="Verdana" font-size="9.75" lengthAdjust="spacing" textLength="23.1086" x="156.0452" y="917.1537">true,</text><text fill="#000000" font-family="Verdana" font-size="9.75" lengthAdjust="spacing" textLength="47.1028" x="144.0482" y="928.5033">message:</text><text fill="#000000" font-family="Verdana" font-size="9.75" lengthAdjust="spacing" textLength="47.6074" x="143.7958" y="939.8529">"Payment</text><text fill="#000000" font-family="Verdana" font-size="9.75" lengthAdjust="spacing" textLength="32.7349" x="151.2321" y="951.2025">retried</text><text fill="#000000" font-family="Verdana" font-size="9.75" lengthAdjust="spacing" textLength="87.0883" x="124.0554" y="962.5521">asynchronously"}</text></g><g class="message" data-participant-1="Browser" data-participant-2="Customer"><polygon fill="#000000" points="43.5015,1019.25,36.0015,1022.25,43.5015,1025.25,40.5015,1022.25" style="stroke:#000000;stroke-width:0.75;"/><line style="stroke:#000000;stroke-width:0.75;stroke-dasharray:1.5,1.5;" x1="39.0015" x2="114.3054" y1="1022.25" y2="1022.25"/><text fill="#000000" font-family="Verdana" font-size="9.75" lengthAdjust="spacing" textLength="26.3079" x="61.9995" y="984.4017">Show</text><text fill="#000000" font-family="Verdana" font-size="9.75" lengthAdjust="spacing" textLength="39.8522" x="55.2274" y="995.7513">graceful</text><text fill="#000000" font-family="Verdana" font-size="9.75" lengthAdjust="spacing" textLength="59.1998" x="45.5535" y="1007.101">degradation</text><text fill="#000000" font-family="Verdana" font-size="9.75" lengthAdjust="spacing" textLength="34.5297" x="57.8886" y="1018.4506">banner</text></g><rect fill="#FFFFFF" height="2.25" rx="3.75" ry="3.75" style="stroke:#FFFFFF;stroke-width:0.75;" width="1160.2643" x="3.75" y="1043.6748"/><line style="stroke:#000000;stroke-width:0.375;" x1="3.75" x2="1164.0143" y1="1043.6748" y2="1043.6748"/><line style="stroke:#000000;stroke-width:0.375;" x1="3.75" x2="1164.0143" y1="1045.9248" y2="1045.9248"/><rect fill="#FFFFFF" height="17.3496" rx="3.75" ry="3.75" style="stroke:#000000;stroke-width:0.75;" width="121.3301" x="523.2171" y="1035.75"/><text fill="#000000" font-family="Verdana" font-size="9.75" font-weight="bold" lengthAdjust="spacing" textLength="107.4357" x="527.7171" y="1047.8002">Background worker</text><g class="message" data-participant-1="Worker" data-participant-2="Queue"><polygon fill="#000000" points="706.6216,1073.4492,699.1216,1076.4492,706.6216,1079.4492,703.6216,1076.4492" style="stroke:#000000;stroke-width:0.75;"/><line style="stroke:#000000;stroke-width:0.75;" x1="702.1216" x2="1101.8284" y1="1076.4492" y2="1076.4492"/><text fill="#000000" font-family="Verdana" font-size="9.75" lengthAdjust="spacing" textLength="81.3849" x="859.7825" y="1072.6498">dequeue_order()</text></g><g class="message" data-participant-1="Queue" data-participant-2="DB"><polygon fill="#000000" points="909.2333,1106.6484,916.7333,1109.6484,909.2333,1112.6484,912.2333,1109.6484" style="stroke:#000000;stroke-width:0.75;"/><line style="stroke:#000000;stroke-width:0.75;" x1="698.3716" x2="913.7333" y1="1109.6484" y2="1109.6484"/><text fill="#000000" font-family="Verdana" font-size="9.75" lengthAdjust="spacing" textLength="39.3094" x="788.6477" y="1094.4994">UPDATE</text><text fill="#000000" font-family="Verdana" font-size="9.75" lengthAdjust="spacing" textLength="167.3734" x="724.6157" y="1105.849">OrderQueue(status="processing")</text></g><g class="message" data-participant-1="DB" data-participant-2="Queue"><polygon fill="#000000" points="706.6216,1139.8477,699.1216,1142.8477,706.6216,1145.8477,703.6216,1142.8477" style="stroke:#000000;stroke-width:0.75;"/><line style="stroke:#000000;stroke-width:0.75;stroke-dasharray:1.5,1.5;" x1="702.1216" x2="917.4833" y1="1142.8477" y2="1142.8477"/><text fill="#000000" font-family="Verdana" font-size="9.75" lengthAdjust="spacing" textLength="17.948" x="799.3284" y="1127.6986">row</text><text fill="#000000" font-family="Verdana" font-size="9.75" lengthAdjust="spacing" textLength="31.8684" x="792.3682" y="1139.0482">locked</text></g><g class="message" data-participant-1="Queue" data-participant-2="Worker"><polygon fill="#000000" points="1093.5784,1173.0469,1101.0784,1176.0469,1093.5784,1179.0469,1096.5784,1176.0469" style="stroke:#000000;stroke-width:0.75;"/><line style="stroke:#000000;stroke-width:0.75;stroke-dasharray:1.5,1.5;" x1="698.3716" x2="1098.0784" y1="1176.0469" y2="1176.0469"/><text fill="#000000" font-family="Verdana" font-size="9.75" lengthAdjust="spacing" textLength="26.1698" x="887.3901" y="1160.8978">order</text><text fill="#000000" font-family="Verdana" font-size="9.75" lengthAdjust="spacing" textLength="38.7715" x="881.0892" y="1172.2474">payload</text></g><g class="message" data-participant-1="Worker" data-participant-2="QTM"><polygon fill="#000000" points="465.8734,1194.8965,458.3734,1197.8965,465.8734,1200.8965,462.8734,1197.8965" style="stroke:#000000;stroke-width:0.75;"/><line style="stroke:#000000;stroke-width:0.75;" x1="461.3734" x2="1101.8284" y1="1197.8965" y2="1197.8965"/><text fill="#000000" font-family="Verdana" font-size="9.75" lengthAdjust="spacing" textLength="221.9363" x="669.1328" y="1194.097">execute_with_circuit_breaker(payment_retry)</text></g><g class="message" data-participant-1="QTM" data-participant-2="CB"><polygon fill="#000000" points="585.2754,1216.7461,592.7754,1219.7461,585.2754,1222.7461,588.2754,1219.7461" style="stroke:#000000;stroke-width:0.75;"/><line style="stroke:#000000;stroke-width:0.75;" x1="457.6234" x2="589.7754" y1="1219.7461" y2="1219.7461"/><text fill="#000000" font-family="Verdana" font-size="9.75" lengthAdjust="spacing" textLength="118.652" x="466.6234" y="1215.9467">execute(payment_retry)</text></g><g class="message" data-participant-1="CB" data-participant-2="DB"><polygon fill="#000000" points="909.2333,1249.9453,916.7333,1252.9453,909.2333,1255.9453,912.2333,1252.9453" style="stroke:#000000;stroke-width:0.75;"/><line style="stroke:#000000;stroke-width:0.75;" x1="594.2754" x2="913.7333" y1="1252.9453" y2="1252.9453"/><text fill="#000000" font-family="Verdana" font-size="9.75" lengthAdjust="spacing" textLength="28.5454" x="741.9816" y="1237.7963">check</text><text fill="#000000" font-family="Verdana" font-size="9.75" lengthAdjust="spacing" textLength="92.6774" x="709.9156" y="1249.1459">next_attempt_time</text></g><g class="message" data-participant-1="DB" data-participant-2="CB"><polygon fill="#000000" points="602.5254,1283.1445,595.0254,1286.1445,602.5254,1289.1445,599.5254,1286.1445" style="stroke:#000000;stroke-width:0.75;"/><line style="stroke:#000000;stroke-width:0.75;stroke-dasharray:1.5,1.5;" x1="598.0254" x2="917.4833" y1="1286.1445" y2="1286.1445"/><text fill="#000000" font-family="Verdana" font-size="9.75" lengthAdjust="spacing" textLength="37.5194" x="737.4946" y="1270.9955">allowed</text><text fill="#000000" font-family="Verdana" font-size="9.75" lengthAdjust="spacing" textLength="64.5319" x="723.9884" y="1282.3451">(HALF_OPEN)</text></g><g class="message" data-participant-1="CB" data-participant-2="CB"><line style="stroke:#000000;stroke-width:0.75;" x1="594.2754" x2="625.7754" y1="1307.9941" y2="1307.9941"/><line style="stroke:#000000;stroke-width:0.75;" x1="625.7754" x2="625.7754" y1="1307.9941" y2="1317.7441"/><line style="stroke:#000000;stroke-width:0.75;" x1="595.0254" x2="625.7754" y1="1317.7441" y2="1317.7441"/><polygon fill="#000000" points="602.5254,1314.7441,595.0254,1317.7441,602.5254,1320.7441,599.5254,1317.7441" style="stroke:#000000;stroke-width:0.75;"/><text fill="#000000" font-family="Verdana" font-size="9.75" lengthAdjust="spacing" textLength="93.5962" x="599.5254" y="1304.1947">process_payment()</text></g><g class="message" data-participant-1="CB" data-participant-2="QTM"><polygon fill="#000000" points="465.8734,1359.293,458.3734,1362.293,465.8734,1365.293,462.8734,1362.293" style="stroke:#000000;stroke-width:0.75;"/><line style="stroke:#000000;stroke-width:0.75;stroke-dasharray:1.5,1.5;" x1="461.3734" x2="593.5254" y1="1362.293" y2="1362.293"/><text fill="#000000" font-family="Verdana" font-size="9.75" lengthAdjust="spacing" textLength="41.2375" x="505.3306" y="1335.7943">success,</text><text fill="#000000" font-family="Verdana" font-size="9.75" lengthAdjust="spacing" textLength="25.1129" x="513.3929" y="1347.1439">close</text><text fill="#000000" font-family="Verdana" font-size="9.75" lengthAdjust="spacing" textLength="37.8241" x="507.0374" y="1358.4935">breaker</text></g><g class="message" data-participant-1="CB" data-participant-2="Metrics"><polygon fill="#000000" points="839.7938,1381.1426,847.2938,1384.1426,839.7938,1387.1426,842.7938,1384.1426" style="stroke:#000000;stroke-width:0.75;"/><line style="stroke:#000000;stroke-width:0.75;" x1="594.2754" x2="844.2938" y1="1384.1426" y2="1384.1426"/><text fill="#000000" font-family="Verdana" font-size="9.75" lengthAdjust="spacing" textLength="236.5184" x="603.2754" y="1380.3431">observe_latency(payment_circuit_mttr_seconds)</text></g><g class="message" data-participant-1="CB" data-participant-2="DB"><polygon fill="#000000" points="909.2333,1414.3418,916.7333,1417.3418,909.2333,1420.3418,912.2333,1417.3418" style="stroke:#000000;stroke-width:0.75;"/><line style="stroke:#000000;stroke-width:0.75;" x1="594.2754" x2="913.7333" y1="1417.3418" y2="1417.3418"/><text fill="#000000" font-family="Verdana" font-size="9.75" lengthAdjust="spacing" textLength="39.3094" x="736.5996" y="1402.1927">UPDATE</text><text fill="#000000" font-family="Verdana" font-size="9.75" lengthAdjust="spacing" textLength="184.9453" x="663.7817" y="1413.5424">CircuitBreakerState(state="CLOSED")</text></g><g class="message" data-participant-1="Worker" data-participant-2="DB"><polygon fill="#000000" points="926.4833,1447.541,918.9833,1450.541,926.4833,1453.541,923.4833,1450.541" style="stroke:#000000;stroke-width:0.75;"/><line style="stroke:#000000;stroke-width:0.75;" x1="921.9833" x2="1101.8284" y1="1450.541" y2="1450.541"/><text fill="#000000" font-family="Verdana" font-size="9.75" lengthAdjust="spacing" textLength="39.3094" x="990.7511" y="1435.392">UPDATE</text><text fill="#000000" font-family="Verdana" font-size="9.75" lengthAdjust="spacing" textLength="166.3451" x="927.2333" y="1446.7416">OrderQueue(status="completed")</text></g><g class="message" data-participant-1="Worker" data-participant-2="Metrics"><polygon fill="#000000" points="857.0438,1469.3906,849.5438,1472.3906,857.0438,1475.3906,854.0438,1472.3906" style="stroke:#000000;stroke-width:0.75;"/><line style="stroke:#000000;stroke-width:0.75;" x1="852.5438" x2="1101.8284" y1="1472.3906" y2="1472.3906"/><text fill="#000000" font-family="Verdana" font-size="9.75" lengthAdjust="spacing" textLength="231.2531" x="860.0596" y="1468.5912">observe_latency(order_processing_latency_ms)</text></g><g class="message" data-participant-1="Worker" data-participant-2="Flask"><polygon fill="#000000" points="228.3937,1513.9395,220.8937,1516.9395,228.3937,1519.9395,225.3937,1516.9395" style="stroke:#000000;stroke-width:0.75;"/><line style="stroke:#000000;stroke-width:0.75;stroke-dasharray:1.5,1.5;" x1="223.8937" x2="1101.8284" y1="1516.9395" y2="1516.9395"/><text fill="#000000" font-family="Verdana" font-size="9.75" lengthAdjust="spacing" textLength="27.8789" x="647.4216" y="1490.4408">notify</text><text fill="#000000" font-family="Verdana" font-size="9.75" lengthAdjust="spacing" textLength="26.1698" x="648.2761" y="1501.7904">order</text><text fill="#000000" font-family="Verdana" font-size="9.75" lengthAdjust="spacing" textLength="51.7302" x="635.4959" y="1513.14">completed</text></g><g class="message" data-participant-1="Flask" data-participant-2="Browser"><polygon fill="#000000" points="123.3054,1581.1875,115.8054,1584.1875,123.3054,1587.1875,120.3054,1584.1875" style="stroke:#000000;stroke-width:0.75;"/><line style="stroke:#000000;stroke-width:0.75;stroke-dasharray:1.5,1.5;" x1="118.8054" x2="219.3937" y1="1584.1875" y2="1584.1875"/><text fill="#000000" font-family="Verdana" font-size="9.75" lengthAdjust="spacing" textLength="24.0322" x="155.5834" y="1534.9896">JSON</text><text fill="#000000" font-family="Verdana" font-size="9.75" lengthAdjust="spacing" textLength="47.6265" x="143.7863" y="1546.3392">{success:</text><text fill="#000000" font-family="Verdana" font-size="9.75" lengthAdjust="spacing" textLength="23.1086" x="156.0452" y="1557.6888">true,</text><text fill="#000000" font-family="Verdana" font-size="9.75" lengthAdjust="spacing" textLength="36.8196" x="149.1898" y="1569.0385">sale_id:</text><text fill="#000000" font-family="Verdana" font-size="9.75" lengthAdjust="spacing" textLength="24.813" x="155.1931" y="1580.3881">124}</text></g><g class="message" data-participant-1="Browser" data-participant-2="Customer"><polygon fill="#000000" points="43.5015,1614.3867,36.0015,1617.3867,43.5015,1620.3867,40.5015,1617.3867" style="stroke:#000000;stroke-width:0.75;"/><line style="stroke:#000000;stroke-width:0.75;stroke-dasharray:1.5,1.5;" x1="39.0015" x2="114.3054" y1="1617.3867" y2="1617.3867"/><text fill="#000000" font-family="Verdana" font-size="9.75" lengthAdjust="spacing" textLength="35.9388" x="57.184" y="1602.2377">Display</text><text fill="#000000" font-family="Verdana" font-size="9.75" lengthAdjust="spacing" textLength="61.804" x="44.2515" y="1613.5873">confirmation</text></g><path d="M852,1630.8867 L852,1687.1367 A3.75,3.75 0 0 0 855.75,1690.8867 L1156.5,1690.8867 A3.75,3.75 0 0 0 1160.25,1687.1367 L1160.25,1634.6367 L1152.75,1627.1367 L855.75,1627.1367 A3.75,3.75 0 0 0 852,1630.8867" fill="#FFF3CD" style="stroke:#856404;stroke-width:0.75;"/><path d="M1152.75,1627.1367 L1152.75,1632.7617 A1.875,1.875 0 0 0 1154.625,1634.6367 L1160.25,1634.6367 L1152.75,1627.1367" fill="#FFF3CD" style="stroke:#856404;stroke-width:0.75;"/><text fill="#000000" font-family="Verdana" font-size="9.75" lengthAdjust="spacing" textLength="152.9579" x="856.5" y="1639.9369">Scenario dashboards consume:</text><text fill="#000000" font-family="Verdana" font-size="9.75" lengthAdjust="spacing" textLength="200.9462" x="856.5" y="1651.2865">- orders_submitted_total / accepted_total</text><text fill="#000000" font-family="Verdana" font-size="9.75" lengthAdjust="spacing" textLength="208.3539" x="856.5" y="1662.6361">- payment_circuit_mttr_seconds histogram</text><text fill="#000000" font-family="Verdana" font-size="9.75" lengthAdjust="spacing" textLength="227.4207" x="856.5" y="1673.9857">- order_processing_latency_ms (p95 &#8804; 500ms)</text><text fill="#000000" font-family="Verdana" font-size="9.75" lengthAdjust="spacing" textLength="292.5143" x="856.5" y="1685.3353">- All timestamps normalized via Config.DEFAULT_TIMEZONE</text><!--SRC=[bLRjRY8t5Fq_Jt5BfPQecrtolK4Y5J23kbK8IM1LgNz6ncF0OiQUjJr9QDK7w7lqoVealVPuO204fViZ2_QvrzVdddlCTsR1CWPvIhW8z9ABd2YIWMRV2YOe6pAjoPnrKpuNG9amJEr1TPMIpvC5fqk1U3YfGPGiH4Ab4ap1IQksaP6Nh4ok-HyCpbj1y2ECSiCp_9h0J2fSkxxCNo359LEBJ78ELwVrCYX96RG-djVMyA_XbET4c84KPcpF-7nWtwmmXP0g8-b-L8_GvTpTfYzJBExxw6nmEWZV04kLCEM19zTNb-7f8U1-wZmzw_AltjZRNxf7-1hEtB_Qjf26lRhIO30uwuUxgFfTFbzSdhVEzoBsNu9G8zMUWw9U5Bs2rKyApqwHt_sG-b61MuT6lz16PamrW6YelWGrgg7HGvLgZ_2Vjm63bEWbTFFSGTotRS13GL9kLZ0a0hajCprCXjkWFbUqu0QFO6HP5TJRnepiDU2XO0NRJcPNjg53PXId6Y8nvu8vb5_QneN4a2dH9IBi1K550XpVLDTjmxYOuZG1NJ2wb8M1f51Sp666Trs0nZaAFDH6EGRQS3yQJ-1J5H84jkSWdn3Z0PE5aiQaDj4FG0gq585r4SEb24fECHdor0PJ8bcih7Leqopmg9WdHm5km_7cJ9AcyfabUmxReHVkYK5NsZs8lJ1Q61O_SxE8QHaIJykGPavM6POOpmf1_SatsA9rr0wWtxFx8UvZpMfLLU0B61jYM13sNFKsYROBq44Xt8x6KTZmyNOhLvAYR6EVlrdchcg-BrS1FP3PtZ2qLRLBZ0-56U7fNduUKHmh-0c6ayaZ68MZXttPOUURbLdiPYb6fyLkO4op_9wWZjQaE3qYBy95R2ESU3qnN-x6qUC4dApBZQQbeT2Td8a42pYg6F8PNRwaIh9T5qzsB-tEHGUWB3V-SI1w9MX5gBsXhzZFHXkue8evgboqZhMJFiR7HXgImgTrmdAXpYNEAy00AIuK0uhEPU2cOzNBz4AcoS-uU-mRFKjvhi586Dr7TsvTCNpm4i0Mubp7Y5B6bMmx4Y0TpZI3cgo-teVTIRHFLuv5rcdOt8rAYUihbWV5xCbggT9i9NQ9p3CShAhrTHVuTJowWp_B7k1Gge9zg1wCDZGg7LfLSAJRKOs3AsIXqrNZhur5M5bxbq5hMSXdcAFWsAn88M7uCN4U05CYyFqFWau7Day1F4jbvxVJsVQnhcliRsxJULdvCIZ_guaoOJKPDtS4wIdT2BBIOsCZcSQkAF5Qa4gwt19cUMwbGMGvbGJdhbREk_t6ZTb1m_68ZJISwu9WBoQsFfVb9hRsKFSRRvNG_ALxEuYjKexURJcwe7Rt0z1KQWQ-u5sToIbs-ud5AMfHqDKhgMN6g5YZ64MYZ_wNhhr57jNvFDm-AhCyPJYq6BI9URFKqh4sFQysuanluZT6WvF9PolVw_LH1sR84rWDaNr1qR_QS79w_jQSX5pZp-qLfXSpZh_Qt3DPUe_YymNwrMpzmWECyLStKLn2WY_qL1ALQ1kfYuordTkyrzqizb3ZOC6nGXpQR9DsFt7GpAyluD-__u6BLiloQF7TD7KF5_OfGpyiVu-wd_9Fd43VtdN-COm6tQ-tatZoPHZzFhgBrcxu7m00]--></g></svg>