<svg xmlns="http://www.w3.org/2000/svg" xmlns:xlink="http://www.w3.org/1999/xlink" contentStyleType="text/css" data-diagram-type="SEQUENCE" height="3425px" preserveAspectRatio="none" style="width:1426px;height:3425px;background:#FFFFFF;" version="1.1" viewBox="0 0 1426 3425" width="1426.25px" zoomAndPan="magnify"><defs/><g><rect fill="#FFFFFF" height="778.3203" rx="9.375" ry="9.375" style="stroke:#000000;stroke-width:1.25;" width="723.7567" x="572.3193" y="1967.7441"/><path d="M572.3193,2248.3203 L1296.076,2248.3203 L1296.076,2736.6895 A9.375,9.375 0 0 1 1286.701,2746.0645 L581.6943,2746.0645 A9.375,9.375 0 0 1 572.3193,2736.6895 L572.3193,2248.3203" fill="#FFFFFF" style="stroke:none;stroke-width:1.25;"/><g><title>Customer</title><rect fill="#000000" fill-opacity="0.00000" height="3220.9277" width="10" x="53.7524" y="102.8711"/><line style="stroke:#000000;stroke-width:1.25;stroke-dasharray:6.25,6.25;" x1="58.75" x2="58.75" y1="102.8711" y2="3323.7988"/></g><g><title>Browser</title><rect fill="#000000" fill-opacity="0.00000" height="3220.9277" width="10" x="186.759" y="102.8711"/><line style="stroke:#000000;stroke-width:1.25;stroke-dasharray:6.25,6.25;" x1="191.2952" x2="191.2952" y1="102.8711" y2="3323.7988"/></g><g><title>Flask App</title><rect fill="#000000" fill-opacity="0.00000" height="3220.9277" width="10" x="362.5964" y="102.8711"/><line style="stroke:#000000;stroke-width:1.25;stroke-dasharray:6.25,6.25;" x1="367.3627" x2="367.3627" y1="102.8711" y2="3323.7988"/></g><g><title>Returns Service</title><rect fill="#000000" fill-opacity="0.00000" height="3220.9277" width="10" x="650.5414" y="102.8711"/><line style="stroke:#000000;stroke-width:1.25;stroke-dasharray:6.25,6.25;" x1="654.8193" x2="654.8193" y1="102.8711" y2="3323.7988"/></g><g><title>Admin Portal</title><rect fill="#000000" fill-opacity="0.00000" height="3220.9277" width="10" x="891.7993" y="102.8711"/><line style="stroke:#000000;stroke-width:1.25;stroke-dasharray:6.25,6.25;" x1="896.6046" x2="896.6046" y1="102.8711" y2="3323.7988"/></g><g><title>Payment Service</title><rect fill="#000000" fill-opacity="0.00000" height="3220.9277" width="10" x="1039.7223" y="102.8711"/><line style="stroke:#000000;stroke-width:1.25;stroke-dasharray:6.25,6.25;" x1="1044.494" x2="1044.494" y1="102.8711" y2="3323.7988"/></g><g><title>Inventory Service</title><rect fill="#000000" fill-opacity="0.00000" height="3220.9277" width="10" x="1202.3883" y="102.8711"/><line style="stroke:#000000;stroke-width:1.25;stroke-dasharray:6.25,6.25;" x1="1206.2006" x2="1206.2006" y1="102.8711" y2="3323.7988"/></g><g><title>Store Admin</title><rect fill="#000000" fill-opacity="0.00000" height="3220.9277" width="10" x="1348.9667" y="102.8711"/><line style="stroke:#000000;stroke-width:1.25;stroke-dasharray:6.25,6.25;" x1="1353.576" x2="1353.576" y1="102.8711" y2="3323.7988"/></g><g class="participant participant-head" data-participant="Customer"><text fill="#000000" font-family="Verdana" font-size="17.5" lengthAdjust="spacing" textLength="85.0049" x="12.5" y="98.7439">Customer</text><ellipse cx="58.7524" cy="17.5" fill="#FFEBEE" rx="10" ry="10" style="stroke:#D32F2F;stroke-width:1.25;"/><path d="M58.7524,27.5 L58.7524,61.25 M42.5024,37.5 L75.0024,37.5 M58.7524,61.25 L42.5024,80 M58.7524,61.25 L75.0024,80" fill="none" style="stroke:#D32F2F;stroke-width:1.25;"/></g><g class="participant participant-tail" data-participant="Customer"><text fill="#000000" font-family="Verdana" font-size="17.5" lengthAdjust="spacing" textLength="85.0049" x="12.5" y="3338.7927">Customer</text><ellipse cx="58.7524" cy="3354.1699" fill="#FFEBEE" rx="10" ry="10" style="stroke:#D32F2F;stroke-width:1.25;"/><path d="M58.7524,3364.1699 L58.7524,3397.9199 M42.5024,3374.1699 L75.0024,3374.1699 M58.7524,3397.9199 L42.5024,3416.6699 M58.7524,3397.9199 L75.0024,3416.6699" fill="none" style="stroke:#D32F2F;stroke-width:1.25;"/></g><g class="participant participant-head" data-participant="Browser"><rect fill="#E3F2FD" height="32.0508" rx="9.375" ry="9.375" style="stroke:#1976D2;stroke-width:1.25;" width="68.4277" x="157.5452" y="69.5703"/><text fill="#000000" font-family="Verdana" font-size="12.5" lengthAdjust="spacing" textLength="50.9277" x="166.2952" y="89.9231">Browser</text></g><g class="participant participant-tail" data-participant="Browser"><rect fill="#E3F2FD" height="32.0508" rx="9.375" ry="9.375" style="stroke:#1976D2;stroke-width:1.25;" width="68.4277" x="157.5452" y="3322.5488"/><text fill="#000000" font-family="Verdana" font-size="12.5" lengthAdjust="spacing" textLength="50.9277" x="166.2952" y="3342.9016">Browser</text></g><g class="participant participant-head" data-participant="Flask"><rect fill="#E3F2FD" height="32.0508" rx="9.375" ry="9.375" style="stroke:#1976D2;stroke-width:1.25;" width="77.9675" x="328.6127" y="69.5703"/><text fill="#000000" font-family="Verdana" font-size="12.5" lengthAdjust="spacing" textLength="60.4675" x="337.3627" y="89.9231">Flask App</text></g><g class="participant participant-tail" data-participant="Flask"><rect fill="#E3F2FD" height="32.0508" rx="9.375" ry="9.375" style="stroke:#1976D2;stroke-width:1.25;" width="77.9675" x="328.6127" y="3322.5488"/><text fill="#000000" font-family="Verdana" font-size="12.5" lengthAdjust="spacing" textLength="60.4675" x="337.3627" y="3342.9016">Flask App</text></g><g class="participant participant-head" data-participant="ReturnsService"><rect fill="#E3F2FD" height="32.0508" rx="9.375" ry="9.375" style="stroke:#1976D2;stroke-width:1.25;" width="116.4441" x="597.3193" y="69.5703"/><text fill="#000000" font-family="Verdana" font-size="12.5" lengthAdjust="spacing" textLength="98.9441" x="606.0693" y="89.9231">Returns Service</text></g><g class="participant participant-tail" data-participant="ReturnsService"><rect fill="#E3F2FD" height="32.0508" rx="9.375" ry="9.375" style="stroke:#1976D2;stroke-width:1.25;" width="116.4441" x="597.3193" y="3322.5488"/><text fill="#000000" font-family="Verdana" font-size="12.5" lengthAdjust="spacing" textLength="98.9441" x="606.0693" y="3342.9016">Returns Service</text></g><g class="participant participant-head" data-participant="AdminPortal"><rect fill="#E3F2FD" height="32.0508" rx="9.375" ry="9.375" style="stroke:#1976D2;stroke-width:1.25;" width="97.8894" x="847.8546" y="69.5703"/><text fill="#000000" font-family="Verdana" font-size="12.5" lengthAdjust="spacing" textLength="80.3894" x="856.6046" y="89.9231">Admin Portal</text></g><g class="participant participant-tail" data-participant="AdminPortal"><rect fill="#E3F2FD" height="32.0508" rx="9.375" ry="9.375" style="stroke:#1976D2;stroke-width:1.25;" width="97.8894" x="847.8546" y="3322.5488"/><text fill="#000000" font-family="Verdana" font-size="12.5" lengthAdjust="spacing" textLength="80.3894" x="856.6046" y="3342.9016">Admin Portal</text></g><g class="participant participant-head" data-participant="PaymentService"><rect fill="#E3F2FD" height="46.6016" rx="9.375" ry="9.375" style="stroke:#1976D2;stroke-width:1.25;" width="122.9565" x="983.244" y="55.0195"/><text fill="#000000" font-family="Verdana" font-size="12.5" lengthAdjust="spacing" textLength="105.4565" x="991.994" y="75.3723">Payment Service</text><text fill="#000000" font-family="Verdana" font-size="12.5" lengthAdjust="spacing" textLength="103.3691" x="993.0377" y="89.9231">(Circuit Breaker)</text></g><g class="participant participant-tail" data-participant="PaymentService"><rect fill="#E3F2FD" height="46.6016" rx="9.375" ry="9.375" style="stroke:#1976D2;stroke-width:1.25;" width="122.9565" x="983.244" y="3322.5488"/><text fill="#000000" font-family="Verdana" font-size="12.5" lengthAdjust="spacing" textLength="105.4565" x="991.994" y="3342.9016">Payment Service</text><text fill="#000000" font-family="Verdana" font-size="12.5" lengthAdjust="spacing" textLength="103.3691" x="993.0377" y="3357.4524">(Circuit Breaker)</text></g><g class="participant participant-head" data-participant="Inventory"><rect fill="#E3F2FD" height="32.0508" rx="9.375" ry="9.375" style="stroke:#1976D2;stroke-width:1.25;" width="127.3755" x="1143.7006" y="69.5703"/><text fill="#000000" font-family="Verdana" font-size="12.5" lengthAdjust="spacing" textLength="109.8755" x="1152.4506" y="89.9231">Inventory Service</text></g><g class="participant participant-tail" data-participant="Inventory"><rect fill="#E3F2FD" height="32.0508" rx="9.375" ry="9.375" style="stroke:#1976D2;stroke-width:1.25;" width="127.3755" x="1143.7006" y="3322.5488"/><text fill="#000000" font-family="Verdana" font-size="12.5" lengthAdjust="spacing" textLength="109.8755" x="1152.4506" y="3342.9016">Inventory Service</text></g><g class="participant participant-head" data-participant="Admin"><text fill="#000000" font-family="Verdana" font-size="17.5" lengthAdjust="spacing" textLength="108.2813" x="1296.076" y="98.7439">Store Admin</text><ellipse cx="1353.9667" cy="17.5" fill="#FFEBEE" rx="10" ry="10" style="stroke:#D32F2F;stroke-width:1.25;"/><path d="M1353.9667,27.5 L1353.9667,61.25 M1337.7167,37.5 L1370.2167,37.5 M1353.9667,61.25 L1337.7167,80 M1353.9667,61.25 L1370.2167,80" fill="none" style="stroke:#D32F2F;stroke-width:1.25;"/></g><g class="participant participant-tail" data-participant="Admin"><text fill="#000000" font-family="Verdana" font-size="17.5" lengthAdjust="spacing" textLength="108.2813" x="1296.076" y="3338.7927">Store Admin</text><ellipse cx="1353.9667" cy="3354.1699" fill="#FFEBEE" rx="10" ry="10" style="stroke:#D32F2F;stroke-width:1.25;"/><path d="M1353.9667,3364.1699 L1353.9667,3397.9199 M1337.7167,3374.1699 L1370.2167,3374.1699 M1353.9667,3397.9199 L1337.7167,3416.6699 M1353.9667,3397.9199 L1370.2167,3416.6699" fill="none" style="stroke:#D32F2F;stroke-width:1.25;"/></g><rect fill="#FFFFFF" height="3.75" rx="9.375" ry="9.375" style="stroke:#FFFFFF;stroke-width:1.25;" width="1411.8573" x="6.25" y="141.0791"/><line style="stroke:#000000;stroke-width:0.625;" x1="6.25" x2="1418.1073" y1="141.0791" y2="141.0791"/><line style="stroke:#000000;stroke-width:0.625;" x1="6.25" x2="1418.1073" y1="144.8291" y2="144.8291"/><rect fill="#FFFFFF" height="28.916" rx="9.375" ry="9.375" style="stroke:#000000;stroke-width:1.25;" width="145.2704" x="639.5435" y="127.8711"/><text fill="#000000" font-family="Verdana" font-size="16.25" font-weight="bold" lengthAdjust="spacing" textLength="122.113" x="647.0435" y="147.9547">RMA Request</text><g class="message" data-participant-1="Customer" data-participant-2="Browser"><polygon fill="#000000" points="176.759,209.6191,189.259,214.6191,176.759,219.6191,181.759,214.6191" style="stroke:#000000;stroke-width:1.25;"/><line style="stroke:#000000;stroke-width:1.25;" x1="58.7524" x2="184.259" y1="214.6191" y2="214.6191"/><text fill="#000000" font-family="Verdana" font-size="16.25" lengthAdjust="spacing" textLength="43.4021" x="103.5547" y="189.3707">Open</text><text fill="#000000" font-family="Verdana" font-size="16.25" lengthAdjust="spacing" textLength="64.27" x="93.1207" y="208.2867">/returns</text></g><g class="message" data-participant-1="Browser" data-participant-2="Flask"><polygon fill="#000000" points="352.5964,264.9512,365.0964,269.9512,352.5964,274.9512,357.5964,269.9512" style="stroke:#000000;stroke-width:1.25;"/><line style="stroke:#000000;stroke-width:1.25;" x1="191.759" x2="360.0964" y1="269.9512" y2="269.9512"/><text fill="#000000" font-family="Verdana" font-size="16.25" lengthAdjust="spacing" textLength="32.7856" x="263.2849" y="244.7028">GET</text><text fill="#000000" font-family="Verdana" font-size="16.25" lengthAdjust="spacing" textLength="64.27" x="247.5427" y="263.6188">/returns</text></g><g class="message" data-participant-1="Flask" data-participant-2="ReturnsService"><polygon fill="#000000" points="640.5414,301.3672,653.0414,306.3672,640.5414,311.3672,645.5414,306.3672" style="stroke:#000000;stroke-width:1.25;"/><line style="stroke:#000000;stroke-width:1.25;" x1="367.5964" x2="648.0414" y1="306.3672" y2="306.3672"/><text fill="#000000" font-family="Verdana" font-size="16.25" lengthAdjust="spacing" textLength="233.316" x="394.9109" y="300.0348">fetch_completed_sales(user)</text></g><g class="message" data-participant-1="ReturnsService" data-participant-2="Flask"><polygon fill="#000000" points="381.3464,375.6152,368.8464,380.6152,381.3464,385.6152,376.3464,380.6152" style="stroke:#000000;stroke-width:1.25;"/><line style="stroke:#000000;stroke-width:1.25;stroke-dasharray:2.5,2.5;" x1="373.8464" x2="654.2914" y1="380.6152" y2="380.6152"/><text fill="#000000" font-family="Verdana" font-size="16.25" lengthAdjust="spacing" textLength="41.4026" x="481.4771" y="336.4508">sales</text><text fill="#000000" font-family="Verdana" font-size="16.25" lengthAdjust="spacing" textLength="5.1654" x="522.8796" y="336.4508">&#160;</text><text fill="#000000" font-family="Verdana" font-size="16.25" lengthAdjust="spacing" textLength="13.6157" x="528.045" y="336.4508">+</text><text fill="#000000" font-family="Verdana" font-size="16.25" lengthAdjust="spacing" textLength="38.1335" x="492.5021" y="355.3668">prior</text><text fill="#000000" font-family="Verdana" font-size="16.25" lengthAdjust="spacing" textLength="44.8938" x="489.122" y="374.2828">RMAs</text></g><g class="message" data-participant-1="Flask" data-participant-2="Browser"><polygon fill="#000000" points="205.509,449.8633,193.009,454.8633,205.509,459.8633,200.509,454.8633" style="stroke:#000000;stroke-width:1.25;"/><line style="stroke:#000000;stroke-width:1.25;stroke-dasharray:2.5,2.5;" x1="198.009" x2="366.3464" y1="454.8633" y2="454.8633"/><text fill="#000000" font-family="Verdana" font-size="16.25" lengthAdjust="spacing" textLength="58.5809" x="250.3873" y="410.6989">Render</text><text fill="#000000" font-family="Verdana" font-size="16.25" lengthAdjust="spacing" textLength="36.4276" x="261.4639" y="429.6149">RMA</text><text fill="#000000" font-family="Verdana" font-size="16.25" lengthAdjust="spacing" textLength="38.1732" x="260.5911" y="448.5309">form</text></g><g class="message" data-participant-1="Customer" data-participant-2="Browser"><polygon fill="#000000" points="176.759,561.9434,189.259,566.9434,176.759,571.9434,181.759,566.9434" style="stroke:#000000;stroke-width:1.25;"/><line style="stroke:#000000;stroke-width:1.25;" x1="58.7524" x2="184.259" y1="566.9434" y2="566.9434"/><text fill="#000000" font-family="Verdana" font-size="16.25" lengthAdjust="spacing" textLength="57.6447" x="96.4334" y="484.9469">Submit</text><text fill="#000000" font-family="Verdana" font-size="16.25" lengthAdjust="spacing" textLength="50.329" x="100.0912" y="503.8629">return</text><text fill="#000000" font-family="Verdana" font-size="16.25" lengthAdjust="spacing" textLength="51.5192" x="99.4962" y="522.7789">(items</text><text fill="#000000" font-family="Verdana" font-size="16.25" lengthAdjust="spacing" textLength="13.6157" x="118.4479" y="541.6949">+</text><text fill="#000000" font-family="Verdana" font-size="16.25" lengthAdjust="spacing" textLength="61.6754" x="94.418" y="560.611">photos)</text></g><g class="message" data-participant-1="Browser" data-participant-2="Flask"><polygon fill="#000000" points="352.5964,617.2754,365.0964,622.2754,352.5964,627.2754,357.5964,622.2754" style="stroke:#000000;stroke-width:1.25;"/><line style="stroke:#000000;stroke-width:1.25;" x1="191.759" x2="360.0964" y1="622.2754" y2="622.2754"/><text fill="#000000" font-family="Verdana" font-size="16.25" lengthAdjust="spacing" textLength="42.8308" x="258.2623" y="597.027">POST</text><text fill="#000000" font-family="Verdana" font-size="16.25" lengthAdjust="spacing" textLength="131.8726" x="213.7415" y="615.943">/returns/request</text></g><g class="message" data-participant-1="Flask" data-participant-2="ReturnsService"><polygon fill="#000000" points="640.5414,653.6914,653.0414,658.6914,640.5414,663.6914,645.5414,658.6914" style="stroke:#000000;stroke-width:1.25;"/><line style="stroke:#000000;stroke-width:1.25;" x1="367.5964" x2="648.0414" y1="658.6914" y2="658.6914"/><text fill="#000000" font-family="Verdana" font-size="16.25" lengthAdjust="spacing" textLength="257.9449" x="382.5964" y="652.359">create_return_request(payload)</text></g><g class="message" data-participant-1="ReturnsService" data-participant-2="ReturnsService"><line style="stroke:#000000;stroke-width:1.25;" x1="655.5414" x2="708.0414" y1="789.6875" y2="789.6875"/><line style="stroke:#000000;stroke-width:1.25;" x1="708.0414" x2="708.0414" y1="789.6875" y2="805.9375"/><line style="stroke:#000000;stroke-width:1.25;" x1="656.7914" x2="708.0414" y1="805.9375" y2="805.9375"/><polygon fill="#000000" points="669.2914,800.9375,656.7914,805.9375,669.2914,810.9375,664.2914,805.9375" style="stroke:#000000;stroke-width:1.25;"/><text fill="#000000" font-family="Verdana" font-size="16.25" lengthAdjust="spacing" textLength="65.246" x="672.222" y="688.775">validate</text><text fill="#000000" font-family="Verdana" font-size="16.25" lengthAdjust="spacing" textLength="47.8375" x="680.9262" y="707.691">policy</text><text fill="#000000" font-family="Verdana" font-size="16.25" lengthAdjust="spacing" textLength="61.6516" x="674.0192" y="726.6071">window</text><text fill="#000000" font-family="Verdana" font-size="16.25" lengthAdjust="spacing" textLength="47.5757" x="681.0571" y="745.5231">check</text><text fill="#000000" font-family="Verdana" font-size="16.25" lengthAdjust="spacing" textLength="36.7133" x="686.4883" y="764.4391">item</text><text fill="#000000" font-family="Verdana" font-size="16.25" lengthAdjust="spacing" textLength="81.1072" x="664.2914" y="783.3551">quantities</text></g><g class="message" data-participant-1="ReturnsService" data-participant-2="Flask"><polygon fill="#000000" points="381.3464,875.1855,368.8464,880.1855,381.3464,885.1855,376.3464,880.1855" style="stroke:#000000;stroke-width:1.25;"/><line style="stroke:#000000;stroke-width:1.25;stroke-dasharray:2.5,2.5;" x1="373.8464" x2="654.2914" y1="880.1855" y2="880.1855"/><text fill="#000000" font-family="Verdana" font-size="16.25" lengthAdjust="spacing" textLength="36.4276" x="493.3551" y="836.0211">RMA</text><text fill="#000000" font-family="Verdana" font-size="16.25" lengthAdjust="spacing" textLength="62.2546" x="480.4416" y="854.9371">created</text><text fill="#000000" font-family="Verdana" font-size="16.25" lengthAdjust="spacing" textLength="231.0229" x="396.0574" y="873.8531">(PENDING_AUTHORIZATION)</text></g><g class="message" data-participant-1="Flask" data-participant-2="Browser"><polygon fill="#000000" points="205.509,968.3496,193.009,973.3496,205.509,978.3496,200.509,973.3496" style="stroke:#000000;stroke-width:1.25;"/><line style="stroke:#000000;stroke-width:1.25;stroke-dasharray:2.5,2.5;" x1="198.009" x2="366.3464" y1="973.3496" y2="973.3496"/><text fill="#000000" font-family="Verdana" font-size="16.25" lengthAdjust="spacing" textLength="42.5848" x="258.3853" y="910.2692">Flash</text><text fill="#000000" font-family="Verdana" font-size="16.25" lengthAdjust="spacing" textLength="63.5638" x="247.8958" y="929.1852">success</text><text fill="#000000" font-family="Verdana" font-size="16.25" lengthAdjust="spacing" textLength="13.6157" x="252.0734" y="948.1012">+</text><text fill="#000000" font-family="Verdana" font-size="16.25" lengthAdjust="spacing" textLength="5.1654" x="265.6891" y="948.1012">&#160;</text><text fill="#000000" font-family="Verdana" font-size="16.25" lengthAdjust="spacing" textLength="36.4276" x="270.8545" y="948.1012">RMA</text><text fill="#000000" font-family="Verdana" font-size="16.25" lengthAdjust="spacing" textLength="63.421" x="247.9672" y="967.0172">number</text></g><rect fill="#FFFFFF" height="3.75" rx="9.375" ry="9.375" style="stroke:#FFFFFF;stroke-width:1.25;" width="1411.8573" x="6.25" y="1009.0576"/><line style="stroke:#000000;stroke-width:0.625;" x1="6.25" x2="1418.1073" y1="1009.0576" y2="1009.0576"/><line style="stroke:#000000;stroke-width:0.625;" x1="6.25" x2="1418.1073" y1="1012.8076" y2="1012.8076"/><rect fill="#FFFFFF" height="28.916" rx="9.375" ry="9.375" style="stroke:#000000;stroke-width:1.25;" width="254.4025" x="584.9774" y="995.8496"/><text fill="#000000" font-family="Verdana" font-size="16.25" font-weight="bold" lengthAdjust="spacing" textLength="231.2451" x="592.4774" y="1015.9332">Authorization &amp; Logistics</text><g class="message" data-participant-1="Admin" data-participant-2="AdminPortal"><polygon fill="#000000" points="910.5493,1077.5977,898.0493,1082.5977,910.5493,1087.5977,905.5493,1082.5977" style="stroke:#000000;stroke-width:1.25;"/><line style="stroke:#000000;stroke-width:1.25;" x1="903.0493" x2="1352.7167" y1="1082.5977" y2="1082.5977"/><text fill="#000000" font-family="Verdana" font-size="16.25" lengthAdjust="spacing" textLength="58.7079" x="1096.0291" y="1057.3492">Review</text><text fill="#000000" font-family="Verdana" font-size="16.25" lengthAdjust="spacing" textLength="120.661" x="1065.0525" y="1076.2653">/admin/returns</text></g><g class="message" data-participant-1="AdminPortal" data-participant-2="ReturnsService"><polygon fill="#000000" points="669.2914,1132.9297,656.7914,1137.9297,669.2914,1142.9297,664.2914,1137.9297" style="stroke:#000000;stroke-width:1.25;"/><line style="stroke:#000000;stroke-width:1.25;" x1="661.7914" x2="895.5493" y1="1137.9297" y2="1137.9297"/><text fill="#000000" font-family="Verdana" font-size="16.25" lengthAdjust="spacing" textLength="201.9745" x="675.1831" y="1112.6813">authorize_return(rma_id,</text><text fill="#000000" font-family="Verdana" font-size="16.25" lengthAdjust="spacing" textLength="120.1294" x="716.1057" y="1131.5973">approve=true)</text></g><g class="message" data-participant-1="ReturnsService" data-participant-2="AdminPortal"><polygon fill="#000000" points="881.7993,1226.0938,894.2993,1231.0938,881.7993,1236.0938,886.7993,1231.0938" style="stroke:#000000;stroke-width:1.25;"/><line style="stroke:#000000;stroke-width:1.25;stroke-dasharray:2.5,2.5;" x1="655.5414" x2="889.2993" y1="1231.0938" y2="1231.0938"/><text fill="#000000" font-family="Verdana" font-size="16.25" lengthAdjust="spacing" textLength="49.9323" x="751.2042" y="1168.0133">status</text><text fill="#000000" font-family="Verdana" font-size="16.25" lengthAdjust="spacing" textLength="107.9419" x="722.1994" y="1186.9293">AUTHORIZED</text><text fill="#000000" font-family="Verdana" font-size="16.25" lengthAdjust="spacing" textLength="13.6157" x="748.566" y="1205.8453">+</text><text fill="#000000" font-family="Verdana" font-size="16.25" lengthAdjust="spacing" textLength="5.1654" x="762.1817" y="1205.8453">&#160;</text><text fill="#000000" font-family="Verdana" font-size="16.25" lengthAdjust="spacing" textLength="36.4276" x="767.3471" y="1205.8453">RMA</text><text fill="#000000" font-family="Verdana" font-size="16.25" lengthAdjust="spacing" textLength="63.421" x="744.4598" y="1224.7614">number</text></g><g class="message" data-participant-1="Customer" data-participant-2="Browser"><polygon fill="#000000" points="176.759,1300.3418,189.259,1305.3418,176.759,1310.3418,181.759,1305.3418" style="stroke:#000000;stroke-width:1.25;"/><line style="stroke:#000000;stroke-width:1.25;" x1="58.7524" x2="184.259" y1="1305.3418" y2="1305.3418"/><text fill="#000000" font-family="Verdana" font-size="16.25" lengthAdjust="spacing" textLength="60.8661" x="94.8227" y="1261.1774">Provide</text><text fill="#000000" font-family="Verdana" font-size="16.25" lengthAdjust="spacing" textLength="76.0925" x="87.2095" y="1280.0934">shipment</text><text fill="#000000" font-family="Verdana" font-size="16.25" lengthAdjust="spacing" textLength="66.4838" x="92.0139" y="1299.0094">tracking</text></g><g class="message" data-participant-1="Browser" data-participant-2="Flask"><polygon fill="#000000" points="352.5964,1355.6738,365.0964,1360.6738,352.5964,1365.6738,357.5964,1360.6738" style="stroke:#000000;stroke-width:1.25;"/><line style="stroke:#000000;stroke-width:1.25;" x1="191.759" x2="360.0964" y1="1360.6738" y2="1360.6738"/><text fill="#000000" font-family="Verdana" font-size="16.25" lengthAdjust="spacing" textLength="42.8308" x="258.2623" y="1335.4254">POST</text><text fill="#000000" font-family="Verdana" font-size="16.25" lengthAdjust="spacing" textLength="145.8374" x="206.759" y="1354.3414">/returns/shipment</text></g><g class="message" data-participant-1="Flask" data-participant-2="ReturnsService"><polygon fill="#000000" points="640.5414,1429.9219,653.0414,1434.9219,640.5414,1439.9219,645.5414,1434.9219" style="stroke:#000000;stroke-width:1.25;"/><line style="stroke:#000000;stroke-width:1.25;" x1="367.5964" x2="648.0414" y1="1434.9219" y2="1434.9219"/><text fill="#000000" font-family="Verdana" font-size="16.25" lengthAdjust="spacing" textLength="203.6963" x="409.7208" y="1390.7574">record_shipment(rma_id,</text><text fill="#000000" font-family="Verdana" font-size="16.25" lengthAdjust="spacing" textLength="58.6127" x="482.2626" y="1409.6735">carrier,</text><text fill="#000000" font-family="Verdana" font-size="16.25" lengthAdjust="spacing" textLength="72.8235" x="475.1572" y="1428.5895">tracking)</text></g><g class="message" data-participant-1="ReturnsService" data-participant-2="Flask"><polygon fill="#000000" points="381.3464,1485.2539,368.8464,1490.2539,381.3464,1495.2539,376.3464,1490.2539" style="stroke:#000000;stroke-width:1.25;"/><line style="stroke:#000000;stroke-width:1.25;stroke-dasharray:2.5,2.5;" x1="373.8464" x2="654.2914" y1="1490.2539" y2="1490.2539"/><text fill="#000000" font-family="Verdana" font-size="16.25" lengthAdjust="spacing" textLength="49.9323" x="486.6028" y="1465.0055">status</text><text fill="#000000" font-family="Verdana" font-size="16.25" lengthAdjust="spacing" textLength="94.5959" x="464.2709" y="1483.9215">IN_TRANSIT</text></g><g class="message" data-participant-1="Admin" data-participant-2="AdminPortal"><polygon fill="#000000" points="910.5493,1559.502,898.0493,1564.502,910.5493,1569.502,905.5493,1564.502" style="stroke:#000000;stroke-width:1.25;"/><line style="stroke:#000000;stroke-width:1.25;" x1="903.0493" x2="1352.7167" y1="1564.502" y2="1564.502"/><text fill="#000000" font-family="Verdana" font-size="16.25" lengthAdjust="spacing" textLength="40.0696" x="1105.3482" y="1520.3375">Mark</text><text fill="#000000" font-family="Verdana" font-size="16.25" lengthAdjust="spacing" textLength="68.8879" x="1090.939" y="1539.2535">package</text><text fill="#000000" font-family="Verdana" font-size="16.25" lengthAdjust="spacing" textLength="70.0543" x="1090.3558" y="1558.1696">received</text></g><g class="message" data-participant-1="AdminPortal" data-participant-2="ReturnsService"><polygon fill="#000000" points="669.2914,1595.918,656.7914,1600.918,669.2914,1605.918,664.2914,1600.918" style="stroke:#000000;stroke-width:1.25;"/><line style="stroke:#000000;stroke-width:1.25;" x1="661.7914" x2="895.5493" y1="1600.918" y2="1600.918"/><text fill="#000000" font-family="Verdana" font-size="16.25" lengthAdjust="spacing" textLength="188.1604" x="682.0901" y="1594.5856">mark_received(rma_id)</text></g><g class="message" data-participant-1="ReturnsService" data-participant-2="AdminPortal"><polygon fill="#000000" points="881.7993,1651.25,894.2993,1656.25,881.7993,1661.25,886.7993,1656.25" style="stroke:#000000;stroke-width:1.25;"/><line style="stroke:#000000;stroke-width:1.25;stroke-dasharray:2.5,2.5;" x1="655.5414" x2="889.2993" y1="1656.25" y2="1656.25"/><text fill="#000000" font-family="Verdana" font-size="16.25" lengthAdjust="spacing" textLength="49.9323" x="751.2042" y="1631.0016">status</text><text fill="#000000" font-family="Verdana" font-size="16.25" lengthAdjust="spacing" textLength="81.861" x="735.2399" y="1649.9176">RECEIVED</text></g><rect fill="#FFFFFF" height="3.75" rx="9.375" ry="9.375" style="stroke:#FFFFFF;stroke-width:1.25;" width="1411.8573" x="6.25" y="1691.958"/><line style="stroke:#000000;stroke-width:0.625;" x1="6.25" x2="1418.1073" y1="1691.958" y2="1691.958"/><line style="stroke:#000000;stroke-width:0.625;" x1="6.25" x2="1418.1073" y1="1695.708" y2="1695.708"/><rect fill="#FFFFFF" height="28.916" rx="9.375" ry="9.375" style="stroke:#000000;stroke-width:1.25;" width="118.8007" x="652.7783" y="1678.75"/><text fill="#000000" font-family="Verdana" font-size="16.25" font-weight="bold" lengthAdjust="spacing" textLength="95.6433" x="660.2783" y="1698.8336">Inspection</text><g class="message" data-participant-1="Admin" data-participant-2="AdminPortal"><polygon fill="#000000" points="910.5493,1779.4141,898.0493,1784.4141,910.5493,1789.4141,905.5493,1784.4141" style="stroke:#000000;stroke-width:1.25;"/><line style="stroke:#000000;stroke-width:1.25;" x1="903.0493" x2="1352.7167" y1="1784.4141" y2="1784.4141"/><text fill="#000000" font-family="Verdana" font-size="16.25" lengthAdjust="spacing" textLength="57.1606" x="1096.8027" y="1740.2496">Record</text><text fill="#000000" font-family="Verdana" font-size="16.25" lengthAdjust="spacing" textLength="83.6542" x="1083.5559" y="1759.1656">inspection</text><text fill="#000000" font-family="Verdana" font-size="16.25" lengthAdjust="spacing" textLength="46.33" x="1102.218" y="1778.0817">result</text></g><g class="message" data-participant-1="AdminPortal" data-participant-2="ReturnsService"><polygon fill="#000000" points="669.2914,1834.7461,656.7914,1839.7461,669.2914,1844.7461,664.2914,1839.7461" style="stroke:#000000;stroke-width:1.25;"/><line style="stroke:#000000;stroke-width:1.25;" x1="661.7914" x2="895.5493" y1="1839.7461" y2="1839.7461"/><text fill="#000000" font-family="Verdana" font-size="16.25" lengthAdjust="spacing" textLength="211.2579" x="670.5414" y="1814.4977">record_inspection(rma_id,</text><text fill="#000000" font-family="Verdana" font-size="16.25" lengthAdjust="spacing" textLength="95.0323" x="728.6542" y="1833.4137">APPROVED)</text></g><g class="message" data-participant-1="ReturnsService" data-participant-2="AdminPortal"><polygon fill="#000000" points="881.7993,1890.0781,894.2993,1895.0781,881.7993,1900.0781,886.7993,1895.0781" style="stroke:#000000;stroke-width:1.25;"/><line style="stroke:#000000;stroke-width:1.25;stroke-dasharray:2.5,2.5;" x1="655.5414" x2="889.2993" y1="1895.0781" y2="1895.0781"/><text fill="#000000" font-family="Verdana" font-size="16.25" lengthAdjust="spacing" textLength="49.9323" x="751.2042" y="1869.8297">status</text><text fill="#000000" font-family="Verdana" font-size="16.25" lengthAdjust="spacing" textLength="88.6926" x="731.824" y="1888.7457">APPROVED</text></g><rect fill="#FFFFFF" height="3.75" rx="9.375" ry="9.375" style="stroke:#FFFFFF;stroke-width:1.25;" width="1411.8573" x="6.25" y="1930.7861"/><line style="stroke:#000000;stroke-width:0.625;" x1="6.25" x2="1418.1073" y1="1930.7861" y2="1930.7861"/><line style="stroke:#000000;stroke-width:0.625;" x1="6.25" x2="1418.1073" y1="1934.5361" y2="1934.5361"/><rect fill="#FFFFFF" height="28.916" rx="9.375" ry="9.375" style="stroke:#000000;stroke-width:1.25;" width="184.0625" x="620.1474" y="1917.5781"/><text fill="#000000" font-family="Verdana" font-size="16.25" font-weight="bold" lengthAdjust="spacing" textLength="160.9052" x="627.6474" y="1937.6617">Refund Execution</text><path d="M581.6943,1967.7441 L652.8729,1967.7441 L652.8729,1976.6602 L640.3729,1989.1602 L572.3193,1989.1602 L572.3193,1977.1191 A9.375,9.375 0 0 1 581.6943,1967.7441" fill="#FFFFFF" style="stroke:#000000;stroke-width:1.25;"/><rect fill="none" height="778.3203" rx="9.375" ry="9.375" style="stroke:#000000;stroke-width:1.25;" width="723.7567" x="572.3193" y="1967.7441"/><text fill="#000000" font-family="Verdana" font-size="16.25" font-weight="bold" lengthAdjust="spacing" textLength="24.3036" x="591.0693" y="1984.0778">alt</text><text fill="#000000" font-family="Verdana" font-size="13.75" font-weight="bold" lengthAdjust="spacing" textLength="291.026" x="671.6229" y="1983.0072">[Manual method (cash / store credit)]</text><g class="message" data-participant-1="AdminPortal" data-participant-2="ReturnsService"><polygon fill="#000000" points="669.2914,2029.4922,656.7914,2034.4922,669.2914,2039.4922,664.2914,2034.4922" style="stroke:#000000;stroke-width:1.25;"/><line style="stroke:#000000;stroke-width:1.25;" x1="661.7914" x2="895.5493" y1="2034.4922" y2="2034.4922"/><text fill="#000000" font-family="Verdana" font-size="16.25" lengthAdjust="spacing" textLength="184.9072" x="683.7167" y="2009.2438">initiate_refund(rma_id,</text><text fill="#000000" font-family="Verdana" font-size="16.25" lengthAdjust="spacing" textLength="143.5681" x="704.3863" y="2028.1598">method=manual)</text></g><g class="message" data-participant-1="ReturnsService" data-participant-2="Inventory"><polygon fill="#000000" points="1192.3883,2065.9082,1204.8883,2070.9082,1192.3883,2075.9082,1197.3883,2070.9082" style="stroke:#000000;stroke-width:1.25;"/><line style="stroke:#000000;stroke-width:1.25;" x1="655.5414" x2="1199.8883" y1="2070.9082" y2="2070.9082"/><text fill="#000000" font-family="Verdana" font-size="16.25" lengthAdjust="spacing" textLength="212.2815" x="825.3241" y="2064.5758">apply_return_stock(items)</text></g><g class="message" data-participant-1="Inventory" data-participant-2="ReturnsService"><polygon fill="#000000" points="669.2914,2121.2402,656.7914,2126.2402,669.2914,2131.2402,664.2914,2126.2402" style="stroke:#000000;stroke-width:1.25;"/><line style="stroke:#000000;stroke-width:1.25;stroke-dasharray:2.5,2.5;" x1="661.7914" x2="1206.1383" y1="2126.2402" y2="2126.2402"/><text fill="#000000" font-family="Verdana" font-size="16.25" lengthAdjust="spacing" textLength="43.1244" x="909.9026" y="2100.9918">stock</text><text fill="#000000" font-family="Verdana" font-size="16.25" lengthAdjust="spacing" textLength="95.3973" x="883.7662" y="2119.9078">replenished</text></g><g class="message" data-participant-1="ReturnsService" data-participant-2="AdminPortal"><polygon fill="#000000" points="881.7993,2233.3203,894.2993,2238.3203,881.7993,2243.3203,886.7993,2238.3203" style="stroke:#000000;stroke-width:1.25;"/><line style="stroke:#000000;stroke-width:1.25;stroke-dasharray:2.5,2.5;" x1="655.5414" x2="889.2993" y1="2238.3203" y2="2238.3203"/><text fill="#000000" font-family="Verdana" font-size="16.25" lengthAdjust="spacing" textLength="49.9323" x="751.2042" y="2156.3239">status</text><text fill="#000000" font-family="Verdana" font-size="16.25" lengthAdjust="spacing" textLength="90.2478" x="731.0464" y="2175.2399">REFUNDED</text><text fill="#000000" font-family="Verdana" font-size="16.25" lengthAdjust="spacing" textLength="13.6157" x="769.3625" y="2194.1559">+</text><text fill="#000000" font-family="Verdana" font-size="16.25" lengthAdjust="spacing" textLength="60.8582" x="745.7413" y="2213.0719">manual</text><text fill="#000000" font-family="Verdana" font-size="16.25" lengthAdjust="spacing" textLength="78.3063" x="737.0172" y="2231.9879">reference</text></g><line style="stroke:#000000;stroke-width:1.25;stroke-dasharray:2.5,2.5;" x1="572.3193" x2="1296.076" y1="2249.5703" y2="2249.5703"/><text fill="#000000" font-family="Verdana" font-size="13.75" font-weight="bold" lengthAdjust="spacing" textLength="188.7671" x="578.5693" y="2262.3334">[Card / Original method]</text><g class="message" data-participant-1="AdminPortal" data-participant-2="ReturnsService"><polygon fill="#000000" points="669.2914,2307.1582,656.7914,2312.1582,669.2914,2317.1582,664.2914,2312.1582" style="stroke:#000000;stroke-width:1.25;"/><line style="stroke:#000000;stroke-width:1.25;" x1="661.7914" x2="895.5493" y1="2312.1582" y2="2312.1582"/><text fill="#000000" font-family="Verdana" font-size="16.25" lengthAdjust="spacing" textLength="184.9072" x="683.7167" y="2286.9098">initiate_refund(rma_id,</text><text fill="#000000" font-family="Verdana" font-size="16.25" lengthAdjust="spacing" textLength="184.812" x="683.7643" y="2305.8258">method=card/original)</text></g><g class="message" data-participant-1="ReturnsService" data-participant-2="PaymentService"><polygon fill="#000000" points="1029.7223,2343.5742,1042.2223,2348.5742,1029.7223,2353.5742,1034.7223,2348.5742" style="stroke:#000000;stroke-width:1.25;"/><line style="stroke:#000000;stroke-width:1.25;" x1="655.5414" x2="1037.2223" y1="2348.5742" y2="2348.5742"/><text fill="#000000" font-family="Verdana" font-size="16.25" lengthAdjust="spacing" textLength="327.4915" x="686.3861" y="2342.2418">execute_with_circuit_breaker(refund_fn)</text></g><g class="message" data-participant-1="PaymentService" data-participant-2="PaymentService"><line style="stroke:#000000;stroke-width:1.25;" x1="1044.7223" x2="1097.2223" y1="2422.8223" y2="2422.8223"/><line style="stroke:#000000;stroke-width:1.25;" x1="1097.2223" x2="1097.2223" y1="2422.8223" y2="2439.0723"/><line style="stroke:#000000;stroke-width:1.25;" x1="1045.9723" x2="1097.2223" y1="2439.0723" y2="2439.0723"/><polygon fill="#000000" points="1058.4723,2434.0723,1045.9723,2439.0723,1058.4723,2444.0723,1053.4723,2439.0723" style="stroke:#000000;stroke-width:1.25;"/><text fill="#000000" font-family="Verdana" font-size="16.25" lengthAdjust="spacing" textLength="27.9218" x="1074.2648" y="2378.6578">call</text><text fill="#000000" font-family="Verdana" font-size="16.25" lengthAdjust="spacing" textLength="44.1162" x="1066.1676" y="2397.5739">mock</text><text fill="#000000" font-family="Verdana" font-size="16.25" lengthAdjust="spacing" textLength="69.5068" x="1053.4723" y="2416.4899">gateway</text></g><g class="message" data-participant-1="PaymentService" data-participant-2="ReturnsService"><polygon fill="#000000" points="669.2914,2527.2363,656.7914,2532.2363,669.2914,2537.2363,664.2914,2532.2363" style="stroke:#000000;stroke-width:1.25;"/><line style="stroke:#000000;stroke-width:1.25;stroke-dasharray:2.5,2.5;" x1="661.7914" x2="1043.4723" y1="2532.2363" y2="2532.2363"/><text fill="#000000" font-family="Verdana" font-size="16.25" lengthAdjust="spacing" textLength="53.3124" x="823.4756" y="2469.1559">refund</text><text fill="#000000" font-family="Verdana" font-size="16.25" lengthAdjust="spacing" textLength="63.5638" x="818.3499" y="2488.0719">success</text><text fill="#000000" font-family="Verdana" font-size="16.25" lengthAdjust="spacing" textLength="13.6157" x="843.324" y="2506.9879">+</text><text fill="#000000" font-family="Verdana" font-size="16.25" lengthAdjust="spacing" textLength="78.3063" x="810.9787" y="2525.9039">reference</text></g><g class="message" data-participant-1="ReturnsService" data-participant-2="Inventory"><polygon fill="#000000" points="1192.3883,2563.6523,1204.8883,2568.6523,1192.3883,2573.6523,1197.3883,2568.6523" style="stroke:#000000;stroke-width:1.25;"/><line style="stroke:#000000;stroke-width:1.25;" x1="655.5414" x2="1199.8883" y1="2568.6523" y2="2568.6523"/><text fill="#000000" font-family="Verdana" font-size="16.25" lengthAdjust="spacing" textLength="212.2815" x="825.3241" y="2562.3199">apply_return_stock(items)</text></g><g class="message" data-participant-1="Inventory" data-participant-2="ReturnsService"><polygon fill="#000000" points="669.2914,2618.9844,656.7914,2623.9844,669.2914,2628.9844,664.2914,2623.9844" style="stroke:#000000;stroke-width:1.25;"/><line style="stroke:#000000;stroke-width:1.25;stroke-dasharray:2.5,2.5;" x1="661.7914" x2="1206.1383" y1="2623.9844" y2="2623.9844"/><text fill="#000000" font-family="Verdana" font-size="16.25" lengthAdjust="spacing" textLength="43.1244" x="909.9026" y="2598.736">stock</text><text fill="#000000" font-family="Verdana" font-size="16.25" lengthAdjust="spacing" textLength="95.3973" x="883.7662" y="2617.652">replenished</text></g><g class="message" data-participant-1="ReturnsService" data-participant-2="AdminPortal"><polygon fill="#000000" points="881.7993,2731.0645,894.2993,2736.0645,881.7993,2741.0645,886.7993,2736.0645" style="stroke:#000000;stroke-width:1.25;"/><line style="stroke:#000000;stroke-width:1.25;stroke-dasharray:2.5,2.5;" x1="655.5414" x2="889.2993" y1="2736.0645" y2="2736.0645"/><text fill="#000000" font-family="Verdana" font-size="16.25" lengthAdjust="spacing" textLength="49.9323" x="751.2042" y="2654.068">status</text><text fill="#000000" font-family="Verdana" font-size="16.25" lengthAdjust="spacing" textLength="90.2478" x="731.0464" y="2672.984">REFUNDED</text><text fill="#000000" font-family="Verdana" font-size="16.25" lengthAdjust="spacing" textLength="13.6157" x="769.3625" y="2691.9">+</text><text fill="#000000" font-family="Verdana" font-size="16.25" lengthAdjust="spacing" textLength="53.3124" x="749.5142" y="2710.816">refund</text><text fill="#000000" font-family="Verdana" font-size="16.25" lengthAdjust="spacing" textLength="54.1376" x="749.1016" y="2729.7321">details</text></g><path d="M886.25,2770.4395 L886.25,2820.4395 A9.375,9.375 0 0 0 895.625,2829.8145 L1193.125,2829.8145 A9.375,9.375 0 0 0 1202.5,2820.4395 L1202.5,2773.5645 L1190,2761.0645 L895.625,2761.0645 A9.375,9.375 0 0 0 886.25,2770.4395" fill="#FFF3CD" style="stroke:#856404;stroke-width:1.25;"/><path d="M1190,2761.0645 L1190,2768.877 A4.6875,4.6875 0 0 0 1194.6875,2773.5645 L1202.5,2773.5645 L1190,2761.0645" fill="#FFF3CD" style="stroke:#856404;stroke-width:1.25;"/><text fill="#000000" font-family="Verdana" font-size="16.25" lengthAdjust="spacing" textLength="197.1185" x="893.75" y="2782.3981">Availability Scenario A.1</text><text fill="#000000" font-family="Verdana" font-size="16.25" lengthAdjust="spacing" textLength="290.0641" x="893.75" y="2801.3141">- Circuit breaker emits MTTR metric</text><text fill="#000000" font-family="Verdana" font-size="16.25" lengthAdjust="spacing" textLength="286.3745" x="893.75" y="2820.2301">- Orders accepted counter updated</text><path d="M547.5,2852.1875 L547.5,2958.4375 A9.375,9.375 0 0 0 556.875,2967.8125 L751.875,2967.8125 A9.375,9.375 0 0 0 761.25,2958.4375 L761.25,2855.3125 L748.75,2842.8125 L556.875,2842.8125 A9.375,9.375 0 0 0 547.5,2852.1875" fill="#FFF3CD" style="stroke:#856404;stroke-width:1.25;"/><path d="M748.75,2842.8125 L748.75,2850.625 A4.6875,4.6875 0 0 0 753.4375,2855.3125 L761.25,2855.3125 L748.75,2842.8125" fill="#FFF3CD" style="stroke:#856404;stroke-width:1.25;"/><text fill="#000000" font-family="Verdana" font-size="16.25" lengthAdjust="spacing" textLength="133.0389" x="555" y="2864.1461">Stage coverage:</text><text fill="#000000" font-family="Verdana" font-size="16.25" lengthAdjust="spacing" textLength="146.7816" x="555" y="2883.0621">1) Submit request</text><text fill="#000000" font-family="Verdana" font-size="16.25" lengthAdjust="spacing" textLength="188.1842" x="555" y="2901.9781">2) Validate &amp; authorize</text><text fill="#000000" font-family="Verdana" font-size="16.25" lengthAdjust="spacing" textLength="160.2625" x="555" y="2920.8942">3) Record shipment</text><text fill="#000000" font-family="Verdana" font-size="16.25" lengthAdjust="spacing" textLength="81.0199" x="555" y="2939.8102">4) Inspect</text><text fill="#000000" font-family="Verdana" font-size="16.25" lengthAdjust="spacing" textLength="187.2003" x="555" y="2958.7262">5) Issue refund &amp; close</text><g class="message" data-participant-1="AdminPortal" data-participant-2="Admin"><polygon fill="#000000" points="1338.9667,3091.0547,1351.4667,3096.0547,1338.9667,3101.0547,1343.9667,3096.0547" style="stroke:#000000;stroke-width:1.25;"/><line style="stroke:#000000;stroke-width:1.25;stroke-dasharray:2.5,2.5;" x1="896.7993" x2="1346.4667" y1="3096.0547" y2="3096.0547"/><text fill="#000000" font-family="Verdana" font-size="16.25" lengthAdjust="spacing" textLength="88.4467" x="1081.1597" y="2995.1422">Dashboard</text><text fill="#000000" font-family="Verdana" font-size="16.25" lengthAdjust="spacing" textLength="67.5708" x="1091.5976" y="3014.0582">updated</text><text fill="#000000" font-family="Verdana" font-size="16.25" lengthAdjust="spacing" textLength="42.7673" x="1103.9993" y="3032.9742">(RMA</text><text fill="#000000" font-family="Verdana" font-size="16.25" lengthAdjust="spacing" textLength="38.1732" x="1106.2964" y="3051.8903">rate,</text><text fill="#000000" font-family="Verdana" font-size="16.25" lengthAdjust="spacing" textLength="41.9977" x="1104.3842" y="3070.8063">cycle</text><text fill="#000000" font-family="Verdana" font-size="16.25" lengthAdjust="spacing" textLength="43.053" x="1103.8565" y="3089.7223">time)</text></g><g class="message" data-participant-1="Flask" data-participant-2="Browser"><polygon fill="#000000" points="205.509,3184.2188,193.009,3189.2188,205.509,3194.2188,200.509,3189.2188" style="stroke:#000000;stroke-width:1.25;"/><line style="stroke:#000000;stroke-width:1.25;stroke-dasharray:2.5,2.5;" x1="198.009" x2="366.3464" y1="3189.2188" y2="3189.2188"/><text fill="#000000" font-family="Verdana" font-size="16.25" lengthAdjust="spacing" textLength="48.3215" x="255.517" y="3126.1383">Notify</text><text fill="#000000" font-family="Verdana" font-size="16.25" lengthAdjust="spacing" textLength="76.521" x="241.4172" y="3145.0543">customer</text><text fill="#000000" font-family="Verdana" font-size="16.25" lengthAdjust="spacing" textLength="24.0894" x="267.6331" y="3163.9703">via</text><text fill="#000000" font-family="Verdana" font-size="16.25" lengthAdjust="spacing" textLength="66.9757" x="246.1899" y="3182.8864">UI/email</text></g><g class="message" data-participant-1="Browser" data-participant-2="Customer"><polygon fill="#000000" points="72.5024,3296.2988,60.0024,3301.2988,72.5024,3306.2988,67.5024,3301.2988" style="stroke:#000000;stroke-width:1.25;"/><line style="stroke:#000000;stroke-width:1.25;stroke-dasharray:2.5,2.5;" x1="65.0024" x2="190.509" y1="3301.2988" y2="3301.2988"/><text fill="#000000" font-family="Verdana" font-size="16.25" lengthAdjust="spacing" textLength="36.4276" x="107.0419" y="3219.3024">RMA</text><text fill="#000000" font-family="Verdana" font-size="16.25" lengthAdjust="spacing" textLength="52.1698" x="99.1708" y="3238.2184">closed</text><text fill="#000000" font-family="Verdana" font-size="16.25" lengthAdjust="spacing" textLength="13.6157" x="118.4479" y="3257.1344">+</text><text fill="#000000" font-family="Verdana" font-size="16.25" lengthAdjust="spacing" textLength="53.3124" x="98.5995" y="3276.0504">refund</text><text fill="#000000" font-family="Verdana" font-size="16.25" lengthAdjust="spacing" textLength="103.0066" x="73.7524" y="3294.9664">confirmation</text></g><!--SRC=[rLPRZzeu57xFhpWxAur0xInbBjrT95QY0xH8Eu20wSEg4l8u1x18xDHseFJNxx6Ja30JEdtOb-t3bDYVp-Kxrr_i1cE496921cOhPC8qYy7WrnGbnmSqXgsn5ucr18xIegv1zRHM-yL6yAqaFBGh4ArI6NAb9MfetrKkOlOjpeGRyHtXxbtbBam4jA-h9_JN2YuI9krGIJjtJzfd01yOtwwztdiLAGs_3cw6ryF-6R3I8UeSsFxpz_VzwmgGSQlq2td3uU33OF02LfNKlxacdHM8L1Ph10rlxllFKLKvVzozltrt6mHU0rpSfyQg6FK5C0F5Hr1n1ou-K2XCZiX_dmA64JDRw2M9X_YlKy0CRQgbWJdgdU3eOVbPVdIAxuMna31LshB8W_r1zdsAdB93J3bKIFuY6_T2yrHOiXJP5dNJlyzXjSf6SaTNIXzEp3kU1a6t2xE77XbCgMaiTBj1mHDS_LKmqe59WX9QEdCho8yTmXFIWO-3HNcTKKQNfpHqO8MMRvPSnKc45iEbOH6QHagYci4f5gvAsHu5Ro3HWe9ArXurL2sSeQGyyCwib8w3UZ_cwLDC_6MMGaDOZBteZRBAD6iScqxcfMVqlwVfl8US0cDncU6NERoHi4EaMFZIoPS2TYmI8Oc0H4M27s0lPAZsNoJV8D-2inU-fXHQOGMQ7v3cUCYC2Q4n7Opxe_77PUznyMao6_tJMumcusOTY-ve0oRbt7McDrwCJECdgWgNAhtKRfGMtvaLIi8b_AtMmb2s6PSuUT7DwIzcILscTv1bFQcgPBiBsaxW7bhC7HxpfmAfeuZbHXGqDtJCbY9y2on9jDfXr-eKQnFgHBUnpAPaNix9eF_CtThycP824IAOZKXyRLfDNKh8zQkfKxmudpiQgV5JKUJ0erkSQIrGlptg-c6nP5wDnil5h3UUZnR16UeVcDvIP-TR6YbEDOeTXgzH7zEZPG7E3VnffcU3-y7eyw3lCsaaJOBSfn6bphdiS8I0AA4QJHhPrwpCYIpV7QdiJQUp2PdmyzcHFyWQ9Qve6C7W6_Aqi9n5bgYKALaI8-KbLHjt9TGY2QuEg0P3OPi1qBzNp1QIYZhh7axFqUXCRZVsMZ99B_l8iQLtN1b4Xw85aHLyc_Mvx6av4QvgRF1m8f0Qj1HcGnbHf-viW8UFuxulfCnO4hH2xLQU02E3SCyed2sOQB4MyiZOVy0DbKZOKhdOSnITpiaEe8yZBlV2qb3A9kloAPkiZKpFSYKpQQTlwwHn5f53ZhqrsRbdXzftjTdgiwhikILf_ujGv_Q7Q9c8J41ZE0ZSOWRKYlNpvOG2lICOUnAHiBIKq8xCQAn3xxSstLr1iU3aOG2aQMtWOR6OkL1hmJrgubO-GtianyGDE4vB8gtQa2PkT8RE1hyRLWrvjf81pAthVDnTqeyEdRIRvNwGpNc0woPyBaRoPJbwwEQcMJIeOsi7k6qMdOq-xkZ3c1GBYYw1HyfWnRoJh2-exa2VEiYJSiMIUqIhdnjDcdxJF3Zm2C6A66j7-5XPiJe0ByRNJZ1u7BKm9jxBAKKlYW6NBmlEjB2C9rTo9QZCNAFx5m00]--></g></svg>